<?xml version="1.0" encoding="utf-8" standalone="no"?>
<!DOCTYPE svg PUBLIC "-//W3C//DTD SVG 1.1//EN"
  "http://www.w3.org/Graphics/SVG/1.1/DTD/svg11.dtd">
<svg xmlns:xlink="http://www.w3.org/1999/xlink" width="868pt" height="423.44pt" viewBox="0 0 868 423.44" xmlns="http://www.w3.org/2000/svg" version="1.1">
 <metadata>
  <rdf:RDF xmlns:dc="http://purl.org/dc/elements/1.1/" xmlns:cc="http://creativecommons.org/ns#" xmlns:rdf="http://www.w3.org/1999/02/22-rdf-syntax-ns#">
   <cc:Work>
    <dc:type rdf:resource="http://purl.org/dc/dcmitype/StillImage"/>
    <dc:date>2026-09-26T18:31:32.177211</dc:date>
    <dc:format>image/svg+xml</dc:format>
    <dc:creator>
     <cc:Agent>
      <dc:title>Matplotlib v3.11.2, https://matplotlib.org/</dc:title>
     </cc:Agent>
    </dc:creator>
   </cc:Work>
  </rdf:RDF>
 </metadata>
 <defs>
  <style type="text/css">*{stroke-linejoin: round; stroke-linecap: butt}</style>
 </defs>
 <g id="figure_1">
  <g id="patch_1">
   <path d="M -0 423.44 
L 868 423.44 
L 868 0 
L -0 0 
z
" style="fill: #ffffff"/>
  </g>
  <g id="axes_1">
   <g id="patch_2">
    <path d="M 50.35 331.78 
L 860.8 331.78 
L 860.8 7.2 
L 50.35 7.2 
z
" style="fill: #ffffff"/>
   </g>
   <g id="patch_3">
    <path d="M 93.989615 222.241674 
L 139.187788 222.241674 
L 139.187788 169.426663 
L 93.989615 169.426663 
z
" clip-path="url(#pcba1e2d7f7)" style="fill: #555555; stroke: #ffffff; stroke-width: 0.5; stroke-linejoin: miter"/>
   </g>
   <g id="patch_4">
    <path d="M 249.845385 222.241674 
L 295.043558 222.241674 
L 295.043558 194.084059 
L 249.845385 194.084059 
z
" clip-path="url(#pcba1e2d7f7)" style="fill: #555555; stroke: #ffffff; stroke-width: 0.5; stroke-linejoin: miter"/>
   </g>
   <g id="patch_5">
    <path d="M 405.701154 222.241674 
L 450.899327 222.241674 
L 450.899327 202.841861 
L 405.701154 202.841861 
z
" clip-path="url(#pcba1e2d7f7)" style="fill: #555555; stroke: #ffffff; stroke-width: 0.5; stroke-linejoin: miter"/>
   </g>
   <g id="patch_6">
    <path d="M 561.556923 222.241674 
L 606.755096 222.241674 
L 606.755096 206.613489 
L 561.556923 206.613489 
z
" clip-path="url(#pcba1e2d7f7)" style="fill: #555555; stroke: #ffffff; stroke-width: 0.5; stroke-linejoin: miter"/>
   </g>
   <g id="patch_7">
    <path d="M 717.412692 222.241674 
L 762.610865 222.241674 
L 762.610865 209.200672 
L 717.412692 209.200672 
z
" clip-path="url(#pcba1e2d7f7)" style="fill: #555555; stroke: #ffffff; stroke-width: 0.5; stroke-linejoin: miter"/>
   </g>
   <g id="patch_8">
    <path d="M 148.539135 222.241674 
L 193.737308 222.241674 
L 193.737308 169.56358 
L 148.539135 169.56358 
z
" clip-path="url(#pcba1e2d7f7)" style="fill: #0d47a1; stroke: #ffffff; stroke-width: 0.5; stroke-linejoin: miter"/>
   </g>
   <g id="patch_9">
    <path d="M 304.394904 222.241674 
L 349.593077 222.241674 
L 349.593077 194.198778 
L 304.394904 194.198778 
z
" clip-path="url(#pcba1e2d7f7)" style="fill: #0d47a1; stroke: #ffffff; stroke-width: 0.5; stroke-linejoin: miter"/>
   </g>
   <g id="patch_10">
    <path d="M 460.250673 222.241674 
L 505.448846 222.241674 
L 505.448846 202.853533 
L 460.250673 202.853533 
z
" clip-path="url(#pcba1e2d7f7)" style="fill: #0d47a1; stroke: #ffffff; stroke-width: 0.5; stroke-linejoin: miter"/>
   </g>
   <g id="patch_11">
    <path d="M 616.106442 222.241674 
L 661.304615 222.241674 
L 661.304615 206.649453 
L 616.106442 206.649453 
z
" clip-path="url(#pcba1e2d7f7)" style="fill: #0d47a1; stroke: #ffffff; stroke-width: 0.5; stroke-linejoin: miter"/>
   </g>
   <g id="patch_12">
    <path d="M 771.962212 222.241674 
L 817.160385 222.241674 
L 817.160385 209.510644 
L 771.962212 209.510644 
z
" clip-path="url(#pcba1e2d7f7)" style="fill: #0d47a1; stroke: #ffffff; stroke-width: 0.5; stroke-linejoin: miter"/>
   </g>
   <g id="matplotlib.axis_1">
    <g id="xtick_1">
     <g id="line2d_1">
      <defs>
       <path id="m926bd2b6f9" d="M 0 0 
L 0 3.5 
" style="stroke: #000000; stroke-width: 0.8"/>
      </defs>
      <g>
       <use xlink:href="#m926bd2b6f9" x="143.863462" y="331.78" style="stroke: #000000; stroke-width: 0.8"/>
      </g>
     </g>
     <g id="text_1">
      <!-- 1 -->
      <g transform="translate(140.363462 352.31125) scale(0.14 -0.14)">
       <defs>
        <path id="SimHei-14" d="M 1400 3600 
Q 1075 3275 575 2975 
L 575 3450 
Q 1200 3875 1600 4450 
L 1900 4450 
L 1900 150 
L 1400 150 
L 1400 3600 
z
" transform="scale(0.015625)"/>
       </defs>
       <use xlink:href="#SimHei-14"/>
      </g>
     </g>
    </g>
    <g id="xtick_2">
     <g id="line2d_2">
      <g>
       <use xlink:href="#m926bd2b6f9" x="299.719231" y="331.78" style="stroke: #000000; stroke-width: 0.8"/>
      </g>
     </g>
     <g id="text_2">
      <!-- 2 -->
      <g transform="translate(296.219231 352.31125) scale(0.14 -0.14)">
       <defs>
        <path id="SimHei-15" d="M 300 250 
Q 325 625 650 925 
Q 975 1225 1475 1862 
Q 1975 2500 2125 2850 
Q 2275 3200 2237 3450 
Q 2200 3700 2000 3862 
Q 1800 4025 1537 4000 
Q 1275 3975 1037 3800 
Q 800 3625 675 3275 
L 200 3350 
Q 400 3925 712 4187 
Q 1025 4450 1450 4475 
Q 1700 4500 1900 4462 
Q 2100 4425 2312 4287 
Q 2525 4150 2662 3875 
Q 2800 3600 2762 3212 
Q 2725 2825 2375 2287 
Q 2025 1750 1025 600 
L 2825 600 
L 2825 150 
L 300 150 
L 300 250 
z
" transform="scale(0.015625)"/>
       </defs>
       <use xlink:href="#SimHei-15"/>
      </g>
     </g>
    </g>
    <g id="xtick_3">
     <g id="line2d_3">
      <g>
       <use xlink:href="#m926bd2b6f9" x="455.575" y="331.78" style="stroke: #000000; stroke-width: 0.8"/>
      </g>
     </g>
     <g id="text_3">
      <!-- 3 -->
      <g transform="translate(452.075 352.31125) scale(0.14 -0.14)">
       <defs>
        <path id="SimHei-16" d="M 250 1225 
L 700 1300 
Q 800 975 1025 762 
Q 1250 550 1587 562 
Q 1925 575 2125 837 
Q 2325 1100 2300 1437 
Q 2275 1775 2037 1962 
Q 1800 2150 1275 2225 
L 1275 2550 
Q 1800 2600 2037 2825 
Q 2275 3050 2250 3412 
Q 2225 3775 1925 3937 
Q 1625 4100 1287 3975 
Q 950 3850 750 3275 
L 300 3350 
Q 450 3800 712 4100 
Q 975 4400 1425 4450 
Q 1875 4500 2212 4337 
Q 2550 4175 2687 3837 
Q 2825 3500 2725 3100 
Q 2625 2700 2150 2400 
Q 2500 2250 2687 1950 
Q 2875 1650 2812 1162 
Q 2750 675 2375 375 
Q 2000 75 1525 87 
Q 1050 100 700 387 
Q 350 675 250 1225 
z
" transform="scale(0.015625)"/>
       </defs>
       <use xlink:href="#SimHei-16"/>
      </g>
     </g>
    </g>
    <g id="xtick_4">
     <g id="line2d_4">
      <g>
       <use xlink:href="#m926bd2b6f9" x="611.430769" y="331.78" style="stroke: #000000; stroke-width: 0.8"/>
      </g>
     </g>
     <g id="text_4">
      <!-- 4 -->
      <g transform="translate(607.930769 352.31125) scale(0.14 -0.14)">
       <defs>
        <path id="SimHei-17" d="M 2000 1100 
L 75 1100 
L 75 1525 
L 2100 4450 
L 2475 4450 
L 2475 1525 
L 3075 1525 
L 3075 1100 
L 2475 1100 
L 2475 150 
L 2000 150 
L 2000 1100 
z
M 2000 1525 
L 2000 3500 
L 600 1525 
L 2000 1525 
z
" transform="scale(0.015625)"/>
       </defs>
       <use xlink:href="#SimHei-17"/>
      </g>
     </g>
    </g>
    <g id="xtick_5">
     <g id="line2d_5">
      <g>
       <use xlink:href="#m926bd2b6f9" x="767.286538" y="331.78" style="stroke: #000000; stroke-width: 0.8"/>
      </g>
     </g>
     <g id="text_5">
      <!-- 5 -->
      <g transform="translate(763.786538 352.31125) scale(0.14 -0.14)">
       <defs>
        <path id="SimHei-18" d="M 550 1325 
Q 725 650 1150 575 
Q 1575 500 1837 662 
Q 2100 825 2212 1087 
Q 2325 1350 2312 1675 
Q 2300 2000 2137 2225 
Q 1975 2450 1725 2525 
Q 1475 2600 1162 2525 
Q 850 2450 650 2175 
L 225 2225 
Q 275 2375 700 4375 
L 2675 4375 
L 2675 3925 
L 1075 3925 
Q 950 3250 825 2850 
Q 1200 3025 1525 3012 
Q 1850 3000 2150 2862 
Q 2450 2725 2587 2487 
Q 2725 2250 2787 2012 
Q 2850 1775 2837 1500 
Q 2825 1225 2725 937 
Q 2625 650 2425 462 
Q 2225 275 1937 162 
Q 1650 50 1275 75 
Q 900 100 562 350 
Q 225 600 100 1200 
L 550 1325 
z
" transform="scale(0.015625)"/>
       </defs>
       <use xlink:href="#SimHei-18"/>
      </g>
     </g>
    </g>
    <g id="text_6">
     <!-- 处理器核数$N$ -->
     <g transform="translate(410.215 374.03) scale(0.16 -0.16)">
      <defs>
       <path id="SimHei-f3a" d="M 2200 4925 
Q 2075 4800 2000 4587 
Q 1925 4375 1825 4050 
L 3425 4050 
Q 3375 3600 3325 3287 
Q 3275 2975 3187 2587 
Q 3100 2200 2950 1762 
Q 2800 1325 2625 1000 
Q 2800 800 3137 575 
Q 3475 350 3975 212 
Q 4475 75 5037 37 
Q 5600 0 6175 25 
Q 5925 -275 5875 -550 
Q 5100 -550 4512 -437 
Q 3925 -325 3587 -212 
Q 3250 -100 2912 137 
Q 2575 375 2325 650 
Q 1950 275 1600 0 
Q 1250 -275 600 -625 
Q 425 -350 225 -200 
Q 775 0 1287 350 
Q 1800 700 2025 1025 
Q 1725 1425 1550 1825 
Q 1375 2225 1225 2650 
Q 875 1975 700 1725 
Q 500 1925 250 2000 
Q 475 2250 725 2675 
Q 975 3100 1137 3500 
Q 1300 3900 1412 4350 
Q 1525 4800 1575 5150 
Q 1850 5000 2200 4925 
z
M 4500 5100 
Q 4475 4725 4475 4275 
L 4475 1775 
Q 4475 1250 4500 450 
L 3975 450 
Q 4000 1250 4000 1775 
L 4000 4275 
Q 4000 4725 3975 5100 
L 4500 5100 
z
M 1525 3200 
Q 1625 2775 1825 2312 
Q 2025 1850 2325 1475 
Q 2525 1900 2662 2437 
Q 2800 2975 2875 3625 
L 1700 3625 
Q 1575 3350 1525 3200 
z
M 4975 3675 
Q 5250 3350 5575 3000 
Q 5900 2650 6150 2350 
Q 5975 2250 5700 1975 
Q 5500 2275 5225 2637 
Q 4950 3000 4600 3375 
Q 4800 3500 4975 3675 
z
" transform="scale(0.015625)"/>
       <path id="SimHei-2a3c" d="M 5825 4850 
Q 5800 4525 5800 3425 
Q 5800 2350 5825 1875 
L 4450 1875 
L 4450 1125 
L 5200 1125 
Q 5650 1125 5900 1150 
L 5900 700 
Q 5625 725 5200 725 
L 4450 725 
L 4450 -125 
L 5350 -125 
Q 5825 -125 6150 -100 
L 6150 -550 
Q 5825 -525 5375 -525 
L 2950 -525 
Q 2550 -525 2250 -550 
L 2250 -100 
Q 2575 -125 2950 -125 
L 3975 -125 
L 3975 725 
L 3150 725 
Q 2825 725 2575 700 
L 2575 1150 
Q 2825 1125 3150 1125 
L 3975 1125 
L 3975 1875 
L 2625 1875 
Q 2650 2250 2650 3400 
Q 2650 4550 2625 4850 
L 5825 4850 
z
M 1750 4525 
Q 2025 4525 2350 4550 
L 2350 4075 
Q 2000 4100 1750 4100 
L 1525 4100 
L 1525 2750 
Q 1875 2750 2225 2775 
L 2225 2300 
Q 1875 2325 1525 2325 
L 1525 725 
Q 2000 900 2325 1050 
Q 2375 800 2425 625 
Q 1950 475 1362 237 
Q 775 0 450 -200 
Q 350 50 225 325 
Q 550 375 1075 600 
L 1075 2325 
Q 625 2325 300 2300 
L 300 2775 
Q 650 2750 1075 2750 
L 1075 4100 
L 775 4100 
Q 550 4100 225 4075 
L 225 4550 
Q 550 4525 775 4525 
L 1750 4525 
z
M 5325 2275 
L 5325 3175 
L 4450 3175 
L 4450 2275 
L 5325 2275 
z
M 5325 3550 
L 5325 4450 
L 4450 4450 
L 4450 3550 
L 5325 3550 
z
M 3975 2275 
L 3975 3175 
L 3125 3175 
L 3125 2275 
L 3975 2275 
z
M 3975 3550 
L 3975 4450 
L 3125 4450 
L 3125 3550 
L 3975 3550 
z
" transform="scale(0.015625)"/>
       <path id="SimHei-c9e" d="M 275 1925 
Q 775 1925 1212 2000 
Q 1650 2075 1987 2200 
Q 2325 2325 2625 2625 
L 1525 2625 
Q 1250 2625 550 2600 
L 550 3025 
Q 1250 3000 1525 3000 
L 2750 3000 
Q 2825 3225 2800 3550 
Q 3125 3500 3475 3450 
Q 3325 3300 3300 3000 
L 4425 3000 
Q 4250 3175 4075 3300 
L 4425 3550 
Q 4625 3400 4800 3200 
Q 4650 3125 4500 3000 
L 4875 3000 
Q 5425 3000 5875 3025 
L 5875 2600 
Q 5450 2625 4875 2625 
L 3625 2625 
Q 4100 2225 4837 2112 
Q 5575 2000 6100 2050 
Q 5900 1800 5850 1500 
Q 5225 1550 4787 1637 
Q 4350 1725 3987 1900 
Q 3625 2075 3150 2575 
Q 2700 2000 1975 1762 
Q 1250 1525 525 1425 
Q 450 1725 275 1925 
z
M 5025 -575 
L 5025 -100 
L 3825 -100 
L 3825 -550 
L 3400 -550 
Q 3425 0 3425 475 
Q 3425 975 3400 1425 
L 5475 1425 
Q 5450 1125 5450 400 
Q 5450 -300 5475 -575 
L 5025 -575 
z
M 2400 -550 
L 2400 -100 
L 1325 -100 
L 1325 -575 
L 875 -575 
Q 900 -150 900 475 
Q 900 1100 875 1425 
L 2825 1425 
Q 2800 1025 2800 425 
Q 2800 -150 2825 -550 
L 2400 -550 
z
M 5475 5025 
Q 5450 4700 5450 4350 
Q 5450 4000 5475 3625 
L 3375 3625 
Q 3400 4000 3400 4350 
Q 3400 4725 3375 5025 
L 5475 5025 
z
M 2825 5025 
Q 2800 4700 2800 4325 
Q 2800 3975 2825 3625 
L 875 3625 
Q 900 3975 900 4325 
Q 900 4700 875 5025 
L 2825 5025 
z
M 5025 250 
L 5025 1050 
L 3825 1050 
L 3825 250 
L 5025 250 
z
M 2400 250 
L 2400 1050 
L 1325 1050 
L 1325 250 
L 2400 250 
z
M 5025 3975 
L 5025 4675 
L 3825 4675 
L 3825 3975 
L 5025 3975 
z
M 2400 3975 
L 2400 4675 
L 1325 4675 
L 1325 3975 
L 2400 3975 
z
" transform="scale(0.015625)"/>
       <path id="SimHei-1e6e" d="M 1275 4375 
Q 1275 4800 1250 5150 
L 1775 5150 
Q 1750 4850 1750 4375 
L 1750 3825 
Q 2075 3825 2450 3850 
L 2450 3350 
Q 2075 3375 1750 3375 
L 1750 2500 
Q 1800 2550 2050 2725 
Q 2375 2225 2625 1850 
Q 2375 1700 2200 1575 
Q 1950 2025 1750 2350 
L 1750 500 
Q 1750 -25 1775 -550 
L 1250 -550 
Q 1300 0 1275 500 
L 1275 2225 
Q 1025 1625 525 925 
Q 325 1250 200 1400 
Q 475 1675 775 2175 
Q 1075 2675 1250 3375 
Q 875 3375 450 3350 
L 450 3850 
Q 900 3825 1275 3825 
L 1275 4375 
z
M 2725 2650 
Q 2875 2650 3175 2937 
Q 3475 3225 3775 3825 
L 4300 3525 
Q 4100 3400 3912 3175 
Q 3725 2950 3425 2650 
L 4525 2675 
Q 4775 3000 4925 3400 
L 5500 3150 
Q 5375 3075 5150 2725 
Q 4925 2375 4500 1900 
Q 4075 1425 3675 1112 
Q 3275 800 2825 525 
Q 2650 725 2400 925 
Q 2925 1125 3400 1487 
Q 3875 1850 4225 2275 
Q 3825 2275 3525 2250 
Q 3225 2225 2875 2150 
L 2725 2650 
z
M 5950 2050 
Q 5800 1950 5612 1675 
Q 5425 1400 5100 975 
Q 5600 525 5862 250 
Q 6125 -25 6150 -50 
Q 5925 -200 5675 -450 
Q 5525 -225 5312 25 
Q 5100 275 4750 625 
Q 4400 300 4100 87 
Q 3800 -125 3462 -300 
Q 3125 -475 2775 -625 
Q 2650 -375 2400 -175 
Q 3075 25 3600 350 
Q 4125 675 4500 1062 
Q 4875 1450 5087 1775 
Q 5300 2100 5400 2350 
Q 5650 2175 5950 2050 
z
M 3100 3875 
Q 2875 3875 2650 3850 
L 2650 4350 
Q 2975 4300 3325 4300 
L 5200 4300 
Q 5600 4300 6025 4350 
L 6025 3850 
Q 5600 3875 5200 3875 
L 3100 3875 
z
M 4350 5225 
Q 4500 4975 4725 4575 
Q 4350 4425 4225 4325 
Q 4050 4750 3850 5000 
Q 4225 5175 4350 5225 
z
" transform="scale(0.015625)"/>
       <path id="SimHei-1ba6" d="M 4525 4925 
Q 4475 4800 4400 4587 
Q 4325 4375 4175 3825 
L 5325 3825 
Q 5575 3825 5925 3850 
L 5925 3400 
Q 5650 3425 5500 3425 
Q 5500 3025 5362 2162 
Q 5225 1300 4875 675 
Q 5125 375 5437 137 
Q 5750 -100 6025 -200 
Q 5725 -425 5625 -625 
Q 5325 -450 5075 -225 
Q 4825 0 4575 325 
Q 4300 25 3987 -187 
Q 3675 -400 3200 -650 
Q 3075 -425 2850 -300 
Q 3225 -150 3650 125 
Q 4075 400 4300 675 
Q 4125 1025 3962 1425 
Q 3800 1825 3675 2475 
Q 3600 2275 3425 1950 
Q 3250 2050 3000 2150 
Q 3400 2850 3650 3675 
Q 3900 4500 3975 5100 
Q 4275 4975 4525 4925 
z
M 2100 2250 
Q 2000 2150 1875 1925 
L 3250 1925 
Q 3100 1300 2725 675 
Q 3125 525 3350 400 
Q 3225 225 3125 25 
Q 2900 175 2450 325 
Q 1950 -225 725 -650 
Q 600 -375 400 -275 
Q 1575 0 2000 475 
Q 1300 650 850 775 
Q 1000 1000 1250 1525 
Q 1000 1525 425 1500 
L 425 1950 
Q 900 1925 1400 1925 
Q 1500 2150 1550 2425 
Q 1825 2325 2100 2250 
z
M 1775 3950 
Q 1775 4550 1750 5100 
L 2250 5100 
Q 2225 4575 2225 3950 
Q 3075 3950 3425 3975 
L 3425 3525 
Q 3075 3550 2225 3550 
Q 2225 2825 2250 2425 
L 1750 2425 
Q 1775 2775 1775 3300 
Q 1650 3100 1300 2787 
Q 950 2475 650 2300 
Q 525 2525 275 2625 
Q 500 2700 875 2975 
Q 1250 3250 1450 3550 
Q 950 3550 500 3525 
L 500 3975 
Q 925 3950 1775 3950 
z
M 3975 3175 
Q 4200 1700 4600 1125 
Q 4850 1700 4937 2287 
Q 5025 2875 5050 3425 
L 4075 3425 
L 3975 3175 
z
M 1450 1000 
Q 1750 925 2275 800 
Q 2475 1050 2650 1525 
L 1725 1525 
Q 1600 1275 1450 1000 
z
M 3325 4825 
Q 3200 4625 3125 4450 
Q 3050 4275 2925 4025 
Q 2725 4125 2525 4175 
Q 2725 4500 2900 5000 
Q 3150 4875 3325 4825 
z
M 2575 3375 
Q 2900 3050 3200 2725 
Q 3050 2600 2875 2425 
Q 2525 2850 2300 3100 
Q 2450 3225 2575 3375 
z
M 925 5000 
Q 1275 4650 1500 4300 
L 1125 4075 
Q 950 4425 600 4725 
Q 825 4875 925 5000 
z
" transform="scale(0.015625)"/>
       <path id="STIXGeneral-Italic-31" d="M 4653 4179 
L 4653 4077 
Q 4480 4038 4413 4016 
Q 4346 3994 4266 3882 
Q 4186 3770 4144 3635 
Q 4102 3501 4000 3149 
L 3066 -96 
L 2950 -96 
L 1478 3424 
L 749 723 
Q 691 525 691 378 
Q 691 243 790 182 
Q 890 122 1139 102 
L 1139 0 
L -128 0 
L -128 102 
Q 147 141 262 304 
Q 378 467 550 1075 
L 1299 3731 
Q 1152 4077 749 4077 
L 749 4179 
L 1773 4179 
L 3098 986 
L 3776 3469 
Q 3827 3648 3827 3750 
Q 3827 3923 3740 3987 
Q 3654 4051 3386 4077 
L 3386 4179 
L 4653 4179 
z
" transform="scale(0.015625)"/>
      </defs>
      <use xlink:href="#SimHei-f3a" transform="translate(0 0.359375)"/>
      <use xlink:href="#SimHei-2a3c" transform="translate(100 0.359375)"/>
      <use xlink:href="#SimHei-c9e" transform="translate(200 0.359375)"/>
      <use xlink:href="#SimHei-1e6e" transform="translate(300 0.359375)"/>
      <use xlink:href="#SimHei-1ba6" transform="translate(400 0.359375)"/>
      <use xlink:href="#STIXGeneral-Italic-31" transform="translate(500 0.359375)"/>
     </g>
    </g>
   </g>
   <g id="matplotlib.axis_2">
    <g id="ytick_1">
     <g id="line2d_6">
      <path d="M 50.35 289.849351 
L 860.8 289.849351 
" clip-path="url(#pcba1e2d7f7)" style="fill: none; stroke: #b0b0b0; stroke-opacity: 0.2; stroke-width: 0.5; stroke-linecap: square"/>
     </g>
     <g id="line2d_7">
      <defs>
       <path id="mc4961929dd" d="M 0 0 
L -3.5 0 
" style="stroke: #000000; stroke-width: 0.8"/>
      </defs>
      <g>
       <use xlink:href="#mc4961929dd" x="50.35" y="289.849351" style="stroke: #000000; stroke-width: 0.8"/>
      </g>
     </g>
     <g id="text_7">
      <!-- -4 -->
      <g transform="translate(27.85 295.864976) scale(0.14 -0.14)">
       <defs>
        <path id="SimHei-10" d="M 2975 2125 
L 125 2125 
L 125 2525 
L 2975 2525 
L 2975 2125 
z
" transform="scale(0.015625)"/>
       </defs>
       <use xlink:href="#SimHei-10"/>
       <use xlink:href="#SimHei-17" transform="translate(50 0)"/>
      </g>
     </g>
    </g>
    <g id="ytick_2">
     <g id="line2d_8">
      <path d="M 50.35 222.241674 
L 860.8 222.241674 
" clip-path="url(#pcba1e2d7f7)" style="fill: none; stroke: #b0b0b0; stroke-opacity: 0.2; stroke-width: 0.5; stroke-linecap: square"/>
     </g>
     <g id="line2d_9">
      <g>
       <use xlink:href="#mc4961929dd" x="50.35" y="222.241674" style="stroke: #000000; stroke-width: 0.8"/>
      </g>
     </g>
     <g id="text_8">
      <!-- 0 -->
      <g transform="translate(34.85 228.257299) scale(0.14 -0.14)">
       <defs>
        <path id="SimHei-13" d="M 225 2537 
Q 250 3200 412 3587 
Q 575 3975 875 4225 
Q 1175 4475 1612 4475 
Q 2050 4475 2375 4112 
Q 2700 3750 2800 3200 
Q 2900 2650 2862 1937 
Q 2825 1225 2612 775 
Q 2400 325 1975 150 
Q 1550 -25 1125 187 
Q 700 400 525 750 
Q 350 1100 275 1487 
Q 200 1875 225 2537 
z
M 750 2687 
Q 675 2000 800 1462 
Q 925 925 1212 700 
Q 1500 475 1800 612 
Q 2100 750 2237 1162 
Q 2375 1575 2375 2062 
Q 2375 2550 2337 2950 
Q 2300 3350 2112 3675 
Q 1925 4000 1612 4012 
Q 1300 4025 1062 3700 
Q 825 3375 750 2687 
z
" transform="scale(0.015625)"/>
       </defs>
       <use xlink:href="#SimHei-13"/>
      </g>
     </g>
    </g>
    <g id="ytick_3">
     <g id="line2d_10">
      <path d="M 50.35 154.633998 
L 860.8 154.633998 
" clip-path="url(#pcba1e2d7f7)" style="fill: none; stroke: #b0b0b0; stroke-opacity: 0.2; stroke-width: 0.5; stroke-linecap: square"/>
     </g>
     <g id="line2d_11">
      <g>
       <use xlink:href="#mc4961929dd" x="50.35" y="154.633998" style="stroke: #000000; stroke-width: 0.8"/>
      </g>
     </g>
     <g id="text_9">
      <!-- 4 -->
      <g transform="translate(34.85 160.649623) scale(0.14 -0.14)">
       <use xlink:href="#SimHei-17"/>
      </g>
     </g>
    </g>
    <g id="ytick_4">
     <g id="line2d_12">
      <path d="M 50.35 87.026321 
L 860.8 87.026321 
" clip-path="url(#pcba1e2d7f7)" style="fill: none; stroke: #b0b0b0; stroke-opacity: 0.2; stroke-width: 0.5; stroke-linecap: square"/>
     </g>
     <g id="line2d_13">
      <g>
       <use xlink:href="#mc4961929dd" x="50.35" y="87.026321" style="stroke: #000000; stroke-width: 0.8"/>
      </g>
     </g>
     <g id="text_10">
      <!-- 8 -->
      <g transform="translate(34.85 93.041946) scale(0.14 -0.14)">
       <defs>
        <path id="SimHei-1b" d="M 175 1375 
Q 175 1675 325 1962 
Q 475 2250 825 2425 
Q 525 2600 425 2812 
Q 325 3025 312 3300 
Q 300 3575 387 3775 
Q 475 3975 650 4150 
Q 825 4325 1037 4387 
Q 1250 4450 1500 4450 
Q 1750 4450 1950 4400 
Q 2150 4350 2375 4187 
Q 2600 4025 2700 3725 
Q 2800 3425 2687 3025 
Q 2575 2625 2100 2400 
Q 2525 2275 2700 2012 
Q 2875 1750 2875 1375 
Q 2875 1000 2762 775 
Q 2650 550 2512 400 
Q 2375 250 2137 162 
Q 1900 75 1537 75 
Q 1175 75 912 162 
Q 650 250 475 425 
Q 300 600 237 837 
Q 175 1075 175 1375 
z
M 687 1400 
Q 675 1100 787 875 
Q 900 650 1200 587 
Q 1500 525 1825 600 
Q 2150 675 2275 950 
Q 2400 1225 2362 1500 
Q 2325 1775 2050 1962 
Q 1775 2150 1450 2125 
Q 1125 2100 912 1900 
Q 700 1700 687 1400 
z
M 775 3350 
Q 775 3100 950 2875 
Q 1125 2650 1500 2650 
Q 1875 2650 2062 2875 
Q 2250 3100 2237 3412 
Q 2225 3725 2012 3875 
Q 1800 4025 1437 4000 
Q 1075 3975 925 3787 
Q 775 3600 775 3350 
z
" transform="scale(0.015625)"/>
       </defs>
       <use xlink:href="#SimHei-1b"/>
      </g>
     </g>
    </g>
    <g id="ytick_5">
     <g id="line2d_14">
      <path d="M 50.35 19.418645 
L 860.8 19.418645 
" clip-path="url(#pcba1e2d7f7)" style="fill: none; stroke: #b0b0b0; stroke-opacity: 0.2; stroke-width: 0.5; stroke-linecap: square"/>
     </g>
     <g id="line2d_15">
      <g>
       <use xlink:href="#mc4961929dd" x="50.35" y="19.418645" style="stroke: #000000; stroke-width: 0.8"/>
      </g>
     </g>
     <g id="text_11">
      <!-- 12 -->
      <g transform="translate(27.85 25.43427) scale(0.14 -0.14)">
       <use xlink:href="#SimHei-14"/>
       <use xlink:href="#SimHei-15" transform="translate(50 0)"/>
      </g>
     </g>
    </g>
    <g id="text_12">
     <!-- 平均Makespan($\times10^6$cycles) -->
     <g transform="translate(21.6 265.97) rotate(-90) scale(0.16 -0.16)">
      <defs>
       <path id="SimHei-14a9" d="M 4525 4825 
Q 4900 4825 5450 4850 
L 5450 4375 
Q 4925 4400 4525 4400 
L 3475 4400 
L 3475 2025 
L 5000 2025 
Q 5550 2025 6025 2050 
L 6025 1575 
Q 5550 1600 5000 1600 
L 3475 1600 
L 3475 450 
Q 3475 -100 3500 -600 
L 2925 -600 
Q 2950 -100 2950 450 
L 2950 1600 
L 1125 1600 
Q 775 1600 375 1575 
L 375 2050 
Q 775 2025 1175 2025 
L 2950 2025 
L 2950 4400 
L 1775 4400 
Q 1400 4400 875 4375 
L 875 4850 
Q 1400 4825 1750 4825 
L 4525 4825 
z
M 3925 2600 
Q 4500 3300 4900 4125 
Q 5150 3950 5400 3825 
Q 4775 2850 4350 2300 
Q 4150 2475 3925 2600 
z
M 1975 2350 
Q 1600 3100 1050 3725 
Q 1250 3875 1450 4050 
Q 2075 3300 2450 2725 
Q 2150 2500 1975 2350 
z
" transform="scale(0.015625)"/>
       <path id="SimHei-d7d" d="M 5775 275 
Q 5775 -325 5362 -450 
Q 4950 -575 4425 -600 
Q 4375 -275 4250 25 
Q 4950 -25 5125 62 
Q 5300 150 5300 500 
L 5375 3700 
L 3550 3700 
Q 3425 3375 3262 3037 
Q 3100 2700 2925 2400 
Q 2675 2550 2475 2625 
Q 3150 3625 3500 5200 
Q 3800 5100 4075 5025 
Q 3975 4875 3875 4650 
Q 3775 4425 3675 4125 
L 5900 4125 
L 5775 275 
z
M 1250 3625 
L 1250 4375 
Q 1250 4775 1225 5100 
L 1775 5100 
Q 1750 4725 1750 4375 
L 1750 3625 
L 1900 3625 
Q 2200 3625 2525 3650 
L 2525 3150 
Q 2200 3175 1900 3175 
L 1750 3175 
L 1750 1100 
L 2500 1375 
Q 2475 1125 2525 900 
Q 1225 475 962 362 
Q 700 250 475 150 
Q 375 475 250 750 
Q 575 800 800 850 
Q 1025 900 1250 975 
L 1250 3175 
L 1125 3175 
Q 850 3175 400 3150 
L 400 3650 
Q 850 3625 1100 3625 
L 1250 3625 
z
M 4950 1625 
Q 4675 1425 4137 1050 
Q 3600 675 3175 300 
Q 3000 575 2850 775 
Q 3350 1050 3762 1325 
Q 4175 1600 4775 2075 
Q 4825 1850 4950 1625 
z
M 3775 3150 
Q 4125 2800 4475 2300 
Q 4250 2125 4100 1975 
Q 3900 2325 3450 2825 
Q 3600 3000 3775 3150 
z
" transform="scale(0.015625)"/>
       <path id="SimHei-30" d="M 2925 125 
L 2425 125 
L 2425 3175 
L 2375 3175 
L 1775 125 
L 1375 125 
L 775 3175 
L 725 3175 
L 725 125 
L 225 125 
L 225 4400 
L 1000 4400 
L 1550 1575 
L 1600 1575 
L 2150 4400 
L 2925 4400 
L 2925 125 
z
" transform="scale(0.015625)"/>
       <path id="SimHei-44" d="M 2875 125 
L 2275 125 
Q 2225 175 2200 262 
Q 2175 350 2175 475 
Q 2000 275 1750 175 
Q 1500 75 1225 75 
Q 825 75 550 275 
Q 275 475 275 850 
Q 275 1225 525 1450 
Q 775 1675 1300 1750 
Q 1650 1800 1912 1875 
Q 2175 1950 2175 2075 
Q 2175 2225 2062 2375 
Q 1950 2525 1575 2525 
Q 1275 2525 1137 2412 
Q 1000 2300 950 2100 
L 400 2100 
Q 450 2500 762 2737 
Q 1075 2975 1575 2975 
Q 2125 2975 2400 2725 
Q 2675 2475 2675 2025 
L 2675 650 
Q 2675 500 2725 375 
Q 2775 250 2875 125 
z
M 2175 1050 
L 2175 1550 
Q 2025 1500 1887 1462 
Q 1750 1425 1425 1375 
Q 1050 1325 937 1200 
Q 825 1075 825 900 
Q 825 750 937 637 
Q 1050 525 1275 525 
Q 1500 525 1762 650 
Q 2025 775 2175 1050 
z
" transform="scale(0.015625)"/>
       <path id="SimHei-4e" d="M 2925 125 
L 2350 125 
L 1450 1650 
L 875 1100 
L 875 125 
L 375 125 
L 375 4400 
L 875 4400 
L 875 1675 
L 2125 2925 
L 2750 2925 
L 1775 1975 
L 2925 125 
z
" transform="scale(0.015625)"/>
       <path id="SimHei-48" d="M 2850 1075 
Q 2800 625 2450 350 
Q 2100 75 1625 75 
Q 1025 75 637 462 
Q 250 850 250 1525 
Q 250 2200 637 2587 
Q 1025 2975 1625 2975 
Q 2150 2975 2487 2637 
Q 2825 2300 2825 1525 
L 800 1525 
Q 800 975 1037 750 
Q 1275 525 1625 525 
Q 1900 525 2075 662 
Q 2250 800 2300 1075 
L 2850 1075 
z
M 2250 1925 
Q 2200 2275 2025 2412 
Q 1850 2550 1575 2550 
Q 1325 2550 1125 2412 
Q 925 2275 825 1925 
L 2250 1925 
z
" transform="scale(0.015625)"/>
       <path id="SimHei-56" d="M 2750 900 
Q 2750 500 2437 287 
Q 2125 75 1650 75 
Q 1050 75 725 312 
Q 400 550 400 1000 
L 900 1000 
Q 900 700 1112 600 
Q 1325 500 1625 500 
Q 1925 500 2075 612 
Q 2225 725 2225 900 
Q 2225 1025 2100 1150 
Q 1975 1275 1475 1350 
Q 900 1425 687 1637 
Q 475 1850 475 2200 
Q 475 2500 762 2737 
Q 1050 2975 1600 2975 
Q 2100 2975 2387 2750 
Q 2675 2525 2675 2150 
L 2175 2150 
Q 2175 2375 2012 2462 
Q 1850 2550 1600 2550 
Q 1275 2550 1137 2437 
Q 1000 2325 1000 2175 
Q 1000 2000 1125 1900 
Q 1250 1800 1650 1750 
Q 2300 1650 2525 1437 
Q 2750 1225 2750 900 
z
" transform="scale(0.015625)"/>
       <path id="SimHei-53" d="M 2825 1525 
Q 2825 800 2475 425 
Q 2125 50 1625 50 
Q 1350 50 1150 162 
Q 950 275 800 500 
L 800 -800 
L 300 -800 
L 300 2925 
L 800 2925 
L 800 2550 
Q 950 2775 1150 2875 
Q 1350 2975 1625 2975 
Q 2125 2975 2475 2612 
Q 2825 2250 2825 1525 
z
M 2275 1525 
Q 2275 2000 2087 2262 
Q 1900 2525 1525 2525 
Q 1225 2525 1012 2262 
Q 800 2000 800 1525 
Q 800 1050 1012 775 
Q 1225 500 1525 500 
Q 1900 500 2087 775 
Q 2275 1050 2275 1525 
z
" transform="scale(0.015625)"/>
       <path id="SimHei-51" d="M 2800 125 
L 2300 125 
L 2300 1925 
Q 2300 2225 2150 2400 
Q 2000 2575 1750 2575 
Q 1425 2575 1137 2237 
Q 850 1900 850 1400 
L 850 125 
L 350 125 
L 350 2925 
L 850 2925 
L 850 2400 
Q 1050 2675 1287 2825 
Q 1525 2975 1900 2975 
Q 2350 2975 2575 2725 
Q 2800 2475 2800 2100 
L 2800 125 
z
" transform="scale(0.015625)"/>
       <path id="SimHei-b" d="M 2975 -200 
L 2700 -475 
Q 2075 125 1762 775 
Q 1450 1425 1450 2250 
Q 1450 3075 1762 3725 
Q 2075 4375 2700 5000 
L 2975 4725 
Q 2400 4175 2112 3587 
Q 1825 3000 1825 2250 
Q 1825 1500 2112 912 
Q 2400 325 2975 -200 
z
" transform="scale(0.015625)"/>
       <path id="STIXGeneral-Regular-99" d="M 3821 141 
L 3526 -160 
L 2048 1312 
L 570 -160 
L 275 134 
L 1747 1613 
L 275 3091 
L 576 3386 
L 2048 1914 
L 3526 3386 
L 3821 3098 
L 2349 1613 
L 3821 141 
z
" transform="scale(0.015625)"/>
       <path id="STIXGeneral-Regular-14" d="M 2522 0 
L 755 0 
L 755 96 
Q 1107 115 1235 227 
Q 1363 339 1363 608 
L 1363 3482 
Q 1363 3795 1171 3795 
Q 1082 3795 883 3718 
L 710 3654 
L 710 3744 
L 1856 4326 
L 1914 4307 
L 1914 486 
Q 1914 275 2042 185 
Q 2170 96 2522 96 
L 2522 0 
z
" transform="scale(0.015625)"/>
       <path id="STIXGeneral-Regular-13" d="M 3046 2112 
Q 3046 1683 2963 1302 
Q 2880 922 2717 602 
Q 2554 282 2266 96 
Q 1978 -90 1600 -90 
Q 1210 -90 915 108 
Q 621 307 461 640 
Q 301 973 227 1350 
Q 154 1728 154 2150 
Q 154 2746 301 3222 
Q 448 3699 790 4012 
Q 1133 4326 1626 4326 
Q 2253 4326 2649 3712 
Q 3046 3098 3046 2112 
z
M 2432 2080 
Q 2432 3091 2217 3625 
Q 2003 4160 1587 4160 
Q 1190 4160 979 3622 
Q 768 3085 768 2106 
Q 768 1120 979 598 
Q 1190 77 1600 77 
Q 2003 77 2217 598 
Q 2432 1120 2432 2080 
z
" transform="scale(0.015625)"/>
       <path id="STIXGeneral-Regular-19" d="M 2854 4378 
L 2867 4275 
Q 2112 4154 1606 3664 
Q 1101 3174 973 2451 
Q 1344 2739 1786 2739 
Q 2349 2739 2672 2380 
Q 2995 2022 2995 1402 
Q 2995 774 2669 378 
Q 2291 -90 1651 -90 
Q 870 -90 518 557 
Q 218 1107 218 1786 
Q 218 2835 915 3552 
Q 1312 3962 1731 4131 
Q 2150 4301 2854 4378 
z
M 2419 1203 
Q 2419 2445 1555 2445 
Q 1235 2445 1024 2275 
Q 813 2106 813 1702 
Q 813 954 1046 522 
Q 1280 90 1722 90 
Q 2061 90 2240 394 
Q 2419 698 2419 1203 
z
" transform="scale(0.015625)"/>
       <path id="SimHei-46" d="M 2850 1250 
Q 2850 725 2487 400 
Q 2125 75 1575 75 
Q 1025 75 625 462 
Q 225 850 225 1525 
Q 225 2200 625 2587 
Q 1025 2975 1575 2975 
Q 2125 2975 2450 2687 
Q 2775 2400 2775 2000 
L 2225 2000 
Q 2200 2300 2012 2412 
Q 1825 2525 1575 2525 
Q 1275 2525 1025 2287 
Q 775 2050 775 1525 
Q 775 1000 1025 762 
Q 1275 525 1575 525 
Q 1900 525 2100 700 
Q 2300 875 2300 1250 
L 2850 1250 
z
" transform="scale(0.015625)"/>
       <path id="SimHei-5c" d="M 2900 2925 
L 1750 -100 
Q 1650 -450 1450 -625 
Q 1250 -800 950 -800 
Q 825 -800 712 -787 
Q 600 -775 500 -725 
L 500 -225 
Q 600 -275 700 -300 
Q 800 -325 875 -325 
Q 1075 -325 1150 -262 
Q 1225 -200 1300 25 
L 200 2925 
L 750 2925 
L 1550 725 
L 1575 725 
L 2350 2925 
L 2900 2925 
z
" transform="scale(0.015625)"/>
       <path id="SimHei-4f" d="M 1825 125 
L 1325 125 
L 1325 4400 
L 1825 4400 
L 1825 125 
z
" transform="scale(0.015625)"/>
       <path id="SimHei-c" d="M 1675 2250 
Q 1675 1425 1362 775 
Q 1050 125 425 -475 
L 150 -200 
Q 725 325 1012 912 
Q 1300 1500 1300 2250 
Q 1300 3000 1012 3587 
Q 725 4175 150 4725 
L 425 5000 
Q 1050 4375 1362 3725 
Q 1675 3075 1675 2250 
z
" transform="scale(0.015625)"/>
      </defs>
      <use xlink:href="#SimHei-14a9" transform="translate(0 0.815625)"/>
      <use xlink:href="#SimHei-d7d" transform="translate(100 0.815625)"/>
      <use xlink:href="#SimHei-30" transform="translate(200 0.815625)"/>
      <use xlink:href="#SimHei-44" transform="translate(250 0.815625)"/>
      <use xlink:href="#SimHei-4e" transform="translate(300 0.815625)"/>
      <use xlink:href="#SimHei-48" transform="translate(350 0.815625)"/>
      <use xlink:href="#SimHei-56" transform="translate(400 0.815625)"/>
      <use xlink:href="#SimHei-53" transform="translate(450 0.815625)"/>
      <use xlink:href="#SimHei-44" transform="translate(500 0.815625)"/>
      <use xlink:href="#SimHei-51" transform="translate(550 0.815625)"/>
      <use xlink:href="#SimHei-b" transform="translate(600 0.815625)"/>
      <use xlink:href="#STIXGeneral-Regular-99" transform="translate(650 0.815625)"/>
      <use xlink:href="#STIXGeneral-Regular-14" transform="translate(713.999939 0.815625)"/>
      <use xlink:href="#STIXGeneral-Regular-13" transform="translate(763.999893 0.815625)"/>
      <use xlink:href="#STIXGeneral-Regular-19" transform="translate(815.574847 42.115625) scale(0.7)"/>
      <use xlink:href="#SimHei-46" transform="translate(855.074815 0.815625)"/>
      <use xlink:href="#SimHei-5c" transform="translate(905.074815 0.815625)"/>
      <use xlink:href="#SimHei-46" transform="translate(955.074815 0.815625)"/>
      <use xlink:href="#SimHei-4f" transform="translate(1005.074815 0.815625)"/>
      <use xlink:href="#SimHei-48" transform="translate(1055.074815 0.815625)"/>
      <use xlink:href="#SimHei-56" transform="translate(1105.074815 0.815625)"/>
      <use xlink:href="#SimHei-c" transform="translate(1155.074815 0.815625)"/>
     </g>
    </g>
   </g>
   <g id="LineCollection_1">
    <path d="M 116.588702 316.89969 
L 116.588702 21.953636 
" clip-path="url(#pcba1e2d7f7)" style="fill: none; stroke: #000000; stroke-width: 1.5"/>
    <path d="M 272.444471 271.680471 
L 272.444471 116.487647 
" clip-path="url(#pcba1e2d7f7)" style="fill: none; stroke: #000000; stroke-width: 1.5"/>
    <path d="M 428.30024 253.872141 
L 428.30024 151.811582 
" clip-path="url(#pcba1e2d7f7)" style="fill: none; stroke: #000000; stroke-width: 1.5"/>
    <path d="M 584.15601 247.059077 
L 584.15601 166.167902 
" clip-path="url(#pcba1e2d7f7)" style="fill: none; stroke: #000000; stroke-width: 1.5"/>
    <path d="M 740.011779 242.226863 
L 740.011779 176.174482 
" clip-path="url(#pcba1e2d7f7)" style="fill: none; stroke: #000000; stroke-width: 1.5"/>
   </g>
   <g id="line2d_16">
    <defs>
     <path id="m2a43444ff9" d="M 3 0 
L -3 -0 
" style="stroke: #000000"/>
    </defs>
    <g clip-path="url(#pcba1e2d7f7)">
     <use xlink:href="#m2a43444ff9" x="116.588702" y="316.89969" style="fill: #1f77b4; stroke: #000000"/>
     <use xlink:href="#m2a43444ff9" x="272.444471" y="271.680471" style="fill: #1f77b4; stroke: #000000"/>
     <use xlink:href="#m2a43444ff9" x="428.30024" y="253.872141" style="fill: #1f77b4; stroke: #000000"/>
     <use xlink:href="#m2a43444ff9" x="584.15601" y="247.059077" style="fill: #1f77b4; stroke: #000000"/>
     <use xlink:href="#m2a43444ff9" x="740.011779" y="242.226863" style="fill: #1f77b4; stroke: #000000"/>
    </g>
   </g>
   <g id="line2d_17">
    <g clip-path="url(#pcba1e2d7f7)">
     <use xlink:href="#m2a43444ff9" x="116.588702" y="21.953636" style="fill: #1f77b4; stroke: #000000"/>
     <use xlink:href="#m2a43444ff9" x="272.444471" y="116.487647" style="fill: #1f77b4; stroke: #000000"/>
     <use xlink:href="#m2a43444ff9" x="428.30024" y="151.811582" style="fill: #1f77b4; stroke: #000000"/>
     <use xlink:href="#m2a43444ff9" x="584.15601" y="166.167902" style="fill: #1f77b4; stroke: #000000"/>
     <use xlink:href="#m2a43444ff9" x="740.011779" y="176.174482" style="fill: #1f77b4; stroke: #000000"/>
    </g>
   </g>
   <g id="LineCollection_2">
    <path d="M 171.138221 317.026364 
L 171.138221 22.100796 
" clip-path="url(#pcba1e2d7f7)" style="fill: none; stroke: #000000; stroke-width: 1.5"/>
    <path d="M 326.99399 271.773974 
L 326.99399 116.623581 
" clip-path="url(#pcba1e2d7f7)" style="fill: none; stroke: #000000; stroke-width: 1.5"/>
    <path d="M 482.84976 254.214329 
L 482.84976 151.492737 
" clip-path="url(#pcba1e2d7f7)" style="fill: none; stroke: #000000; stroke-width: 1.5"/>
    <path d="M 638.705529 247.652035 
L 638.705529 165.64687 
" clip-path="url(#pcba1e2d7f7)" style="fill: none; stroke: #000000; stroke-width: 1.5"/>
    <path d="M 794.561298 241.73804 
L 794.561298 177.283248 
" clip-path="url(#pcba1e2d7f7)" style="fill: none; stroke: #000000; stroke-width: 1.5"/>
   </g>
   <g id="line2d_18">
    <g clip-path="url(#pcba1e2d7f7)">
     <use xlink:href="#m2a43444ff9" x="171.138221" y="317.026364" style="fill: #1f77b4; stroke: #000000"/>
     <use xlink:href="#m2a43444ff9" x="326.99399" y="271.773974" style="fill: #1f77b4; stroke: #000000"/>
     <use xlink:href="#m2a43444ff9" x="482.84976" y="254.214329" style="fill: #1f77b4; stroke: #000000"/>
     <use xlink:href="#m2a43444ff9" x="638.705529" y="247.652035" style="fill: #1f77b4; stroke: #000000"/>
     <use xlink:href="#m2a43444ff9" x="794.561298" y="241.73804" style="fill: #1f77b4; stroke: #000000"/>
    </g>
   </g>
   <g id="line2d_19">
    <g clip-path="url(#pcba1e2d7f7)">
     <use xlink:href="#m2a43444ff9" x="171.138221" y="22.100796" style="fill: #1f77b4; stroke: #000000"/>
     <use xlink:href="#m2a43444ff9" x="326.99399" y="116.623581" style="fill: #1f77b4; stroke: #000000"/>
     <use xlink:href="#m2a43444ff9" x="482.84976" y="151.492737" style="fill: #1f77b4; stroke: #000000"/>
     <use xlink:href="#m2a43444ff9" x="638.705529" y="165.64687" style="fill: #1f77b4; stroke: #000000"/>
     <use xlink:href="#m2a43444ff9" x="794.561298" y="177.283248" style="fill: #1f77b4; stroke: #000000"/>
    </g>
   </g>
   <g id="patch_13">
    <path d="M 50.35 331.78 
L 50.35 7.2 
" style="fill: none; stroke: #000000; stroke-width: 0.8; stroke-linejoin: miter; stroke-linecap: square"/>
   </g>
   <g id="patch_14">
    <path d="M 860.8 331.78 
L 860.8 7.2 
" style="fill: none; stroke: #000000; stroke-width: 0.8; stroke-linejoin: miter; stroke-linecap: square"/>
   </g>
   <g id="patch_15">
    <path d="M 50.35 331.78 
L 860.8 331.78 
" style="fill: none; stroke: #000000; stroke-width: 0.8; stroke-linejoin: miter; stroke-linecap: square"/>
   </g>
   <g id="patch_16">
    <path d="M 50.35 7.2 
L 860.8 7.2 
" style="fill: none; stroke: #000000; stroke-width: 0.8; stroke-linejoin: miter; stroke-linecap: square"/>
   </g>
   <g id="text_13">
    <!-- 3.12 -->
    <g style="fill: #333333" transform="translate(102.588702 167.119875) scale(0.14 -0.14)">
     <defs>
      <path id="SimHei-11" d="M 1075 125 
L 500 125 
L 500 675 
L 1075 675 
L 1075 125 
z
" transform="scale(0.015625)"/>
     </defs>
     <use xlink:href="#SimHei-16"/>
     <use xlink:href="#SimHei-11" transform="translate(50 0)"/>
     <use xlink:href="#SimHei-14" transform="translate(100 0)"/>
     <use xlink:href="#SimHei-15" transform="translate(150 0)"/>
    </g>
   </g>
   <g id="text_14">
    <!-- 1.67 -->
    <g style="fill: #333333" transform="translate(258.444471 191.77727) scale(0.14 -0.14)">
     <defs>
      <path id="SimHei-19" d="M 250 1612 
Q 275 1975 387 2225 
Q 500 2475 725 2850 
L 1750 4450 
L 2325 4450 
L 1275 2800 
Q 1950 2975 2350 2750 
Q 2750 2525 2887 2237 
Q 3025 1950 3037 1612 
Q 3050 1275 2937 950 
Q 2825 625 2537 362 
Q 2250 100 1737 75 
Q 1225 50 862 262 
Q 500 475 362 862 
Q 225 1250 250 1612 
z
M 1025 787 
Q 1250 550 1625 525 
Q 2000 500 2250 775 
Q 2500 1050 2500 1575 
Q 2500 2100 2187 2300 
Q 1875 2500 1487 2450 
Q 1100 2400 925 2075 
Q 750 1750 775 1387 
Q 800 1025 1025 787 
z
" transform="scale(0.015625)"/>
      <path id="SimHei-1a" d="M 850 150 
Q 1300 2050 2425 3925 
L 275 3925 
L 275 4375 
L 2950 4375 
L 2950 3950 
Q 1775 2050 1400 150 
L 850 150 
z
" transform="scale(0.015625)"/>
     </defs>
     <use xlink:href="#SimHei-14"/>
     <use xlink:href="#SimHei-11" transform="translate(50 0)"/>
     <use xlink:href="#SimHei-19" transform="translate(100 0)"/>
     <use xlink:href="#SimHei-1a" transform="translate(150 0)"/>
    </g>
   </g>
   <g id="text_15">
    <!-- 1.15 -->
    <g style="fill: #333333" transform="translate(414.30024 200.535073) scale(0.14 -0.14)">
     <use xlink:href="#SimHei-14"/>
     <use xlink:href="#SimHei-11" transform="translate(50 0)"/>
     <use xlink:href="#SimHei-14" transform="translate(100 0)"/>
     <use xlink:href="#SimHei-18" transform="translate(150 0)"/>
    </g>
   </g>
   <g id="text_16">
    <!-- 0.92 -->
    <g style="fill: #333333" transform="translate(570.15601 204.306701) scale(0.14 -0.14)">
     <defs>
      <path id="SimHei-1c" d="M 800 75 
Q 1350 1000 1700 1750 
Q 1075 1650 662 1912 
Q 250 2175 162 2625 
Q 75 3075 175 3437 
Q 275 3800 487 4037 
Q 700 4275 1000 4375 
Q 1300 4475 1537 4475 
Q 1775 4475 2025 4375 
Q 2275 4275 2475 4075 
Q 2675 3875 2750 3662 
Q 2825 3450 2825 3112 
Q 2825 2775 2575 2250 
Q 2325 1725 1350 75 
L 800 75 
z
M 662 2875 
Q 700 2550 937 2337 
Q 1175 2125 1450 2150 
Q 1725 2175 1887 2300 
Q 2050 2425 2200 2725 
Q 2300 3100 2250 3362 
Q 2200 3625 1987 3800 
Q 1775 3975 1525 3975 
Q 1375 4000 1137 3900 
Q 900 3800 762 3500 
Q 625 3200 662 2875 
z
" transform="scale(0.015625)"/>
     </defs>
     <use xlink:href="#SimHei-13"/>
     <use xlink:href="#SimHei-11" transform="translate(50 0)"/>
     <use xlink:href="#SimHei-1c" transform="translate(100 0)"/>
     <use xlink:href="#SimHei-15" transform="translate(150 0)"/>
    </g>
   </g>
   <g id="text_17">
    <!-- 0.77 -->
    <g style="fill: #333333" transform="translate(726.011779 206.893884) scale(0.14 -0.14)">
     <use xlink:href="#SimHei-13"/>
     <use xlink:href="#SimHei-11" transform="translate(50 0)"/>
     <use xlink:href="#SimHei-1a" transform="translate(100 0)"/>
     <use xlink:href="#SimHei-1a" transform="translate(150 0)"/>
    </g>
   </g>
   <g id="text_18">
    <!-- 3.12 -->
    <g style="fill: #0a3273" transform="translate(157.138221 167.256791) scale(0.14 -0.14)">
     <use xlink:href="#SimHei-16"/>
     <use xlink:href="#SimHei-11" transform="translate(50 0)"/>
     <use xlink:href="#SimHei-14" transform="translate(100 0)"/>
     <use xlink:href="#SimHei-15" transform="translate(150 0)"/>
    </g>
   </g>
   <g id="text_19">
    <!-- 1.66 -->
    <g style="fill: #0a3273" transform="translate(312.99399 191.891989) scale(0.14 -0.14)">
     <use xlink:href="#SimHei-14"/>
     <use xlink:href="#SimHei-11" transform="translate(50 0)"/>
     <use xlink:href="#SimHei-19" transform="translate(100 0)"/>
     <use xlink:href="#SimHei-19" transform="translate(150 0)"/>
    </g>
   </g>
   <g id="text_20">
    <!-- 1.15 -->
    <g style="fill: #0a3273" transform="translate(468.84976 200.546744) scale(0.14 -0.14)">
     <use xlink:href="#SimHei-14"/>
     <use xlink:href="#SimHei-11" transform="translate(50 0)"/>
     <use xlink:href="#SimHei-14" transform="translate(100 0)"/>
     <use xlink:href="#SimHei-18" transform="translate(150 0)"/>
    </g>
   </g>
   <g id="text_21">
    <!-- 0.92 -->
    <g style="fill: #0a3273" transform="translate(624.705529 204.342664) scale(0.14 -0.14)">
     <use xlink:href="#SimHei-13"/>
     <use xlink:href="#SimHei-11" transform="translate(50 0)"/>
     <use xlink:href="#SimHei-1c" transform="translate(100 0)"/>
     <use xlink:href="#SimHei-15" transform="translate(150 0)"/>
    </g>
   </g>
   <g id="text_22">
    <!-- 0.75 -->
    <g style="fill: #0a3273" transform="translate(780.561298 207.203855) scale(0.14 -0.14)">
     <use xlink:href="#SimHei-13"/>
     <use xlink:href="#SimHei-11" transform="translate(50 0)"/>
     <use xlink:href="#SimHei-1a" transform="translate(100 0)"/>
     <use xlink:href="#SimHei-18" transform="translate(150 0)"/>
    </g>
   </g>
   <g id="text_23">
    <!-- 误差棒:±1 标准差($N$=100) -->
    <g style="fill: #1a1a1a" transform="translate(710.721 306.728538) scale(0.11 -0.11)">
     <defs>
      <path id="SimHei-4225" d="M 4625 2750 
Q 5325 2750 5800 2775 
L 5800 2350 
Q 5300 2375 4625 2375 
L 4150 2375 
Q 4150 2125 4100 1650 
L 5025 1650 
Q 5575 1650 6100 1675 
L 6100 1225 
Q 5575 1250 5025 1250 
L 4250 1250 
Q 4575 600 5050 287 
Q 5525 -25 6125 -125 
Q 5900 -350 5775 -625 
Q 4875 -275 4450 175 
Q 4025 625 3900 1000 
Q 3600 325 3125 -62 
Q 2650 -450 2025 -675 
Q 1975 -450 1725 -200 
Q 2475 -75 2937 437 
Q 3400 950 3475 1250 
L 2975 1250 
Q 2400 1250 2025 1225 
L 2025 1675 
Q 2475 1650 2900 1650 
L 3600 1650 
Q 3650 2025 3650 2375 
L 3325 2375 
Q 2675 2375 2225 2350 
L 2225 2775 
Q 2700 2750 3150 2750 
L 4625 2750 
z
M 5425 4875 
Q 5400 4550 5400 4075 
Q 5400 3600 5425 3325 
L 2450 3325 
Q 2475 3575 2475 4050 
Q 2475 4525 2450 4875 
L 5425 4875 
z
M 1550 3325 
Q 1525 3000 1525 2500 
L 1525 675 
L 1900 1100 
Q 2025 875 2225 700 
Q 1675 300 1250 -325 
Q 1100 -100 825 50 
Q 1025 250 1050 500 
L 1050 2900 
Q 700 2900 325 2875 
L 325 3350 
Q 550 3325 750 3325 
L 1550 3325 
z
M 4975 3700 
L 4975 4475 
L 2900 4475 
L 2900 3700 
L 4975 3700 
z
M 975 5125 
Q 1150 5000 1900 4275 
Q 1725 4125 1550 3925 
Q 1150 4400 675 4775 
Q 875 4975 975 5125 
z
" transform="scale(0.015625)"/>
      <path id="SimHei-1424" d="M 4725 4975 
Q 4500 4725 4250 4275 
L 4850 4275 
Q 5450 4275 5825 4300 
L 5825 3850 
Q 5425 3875 4850 3875 
L 3275 3875 
Q 3225 3600 3150 3275 
L 4525 3275 
Q 5075 3275 5525 3300 
L 5525 2850 
Q 5075 2875 4500 2875 
L 3050 2875 
Q 2975 2650 2850 2325 
L 5125 2325 
Q 5675 2325 6025 2350 
L 6025 1900 
Q 5700 1925 5150 1925 
L 2650 1925 
Q 2425 1550 2250 1300 
Q 2650 1275 3100 1275 
L 4525 1275 
Q 4975 1275 5350 1300 
L 5350 850 
Q 4975 875 4575 875 
L 3925 875 
L 3925 -50 
L 5000 -50 
Q 5200 -50 5900 -25 
L 5900 -500 
Q 5275 -475 5025 -475 
L 2100 -475 
Q 1700 -475 1400 -500 
L 1400 -25 
Q 1775 -50 2125 -50 
L 3425 -50 
L 3425 875 
L 3100 875 
Q 2625 875 2175 850 
L 2175 1200 
Q 1925 875 1487 475 
Q 1050 75 625 -250 
Q 425 -25 200 150 
Q 750 475 1262 925 
Q 1775 1375 2100 1925 
L 1325 1925 
Q 750 1925 375 1900 
L 375 2350 
Q 750 2325 1350 2325 
L 2325 2325 
Q 2450 2575 2550 2875 
L 1725 2875 
Q 1375 2875 1000 2850 
L 1000 3300 
Q 1500 3275 1700 3275 
L 2650 3275 
Q 2725 3575 2775 3875 
L 1500 3875 
Q 1100 3875 650 3850 
L 650 4300 
Q 1025 4275 1425 4275 
L 2275 4275 
Q 2075 4675 1850 4950 
Q 2025 5050 2250 5225 
Q 2450 4975 2725 4550 
Q 2525 4450 2325 4275 
L 3750 4275 
Q 4000 4700 4150 5250 
Q 4400 5100 4725 4975 
z
" transform="scale(0.015625)"/>
      <path id="SimHei-1f08" d="M 3775 4425 
Q 3875 5050 3850 5200 
L 4400 5125 
Q 4375 5050 4350 5000 
Q 4325 4950 4200 4425 
L 5100 4425 
Q 5325 4425 5750 4450 
L 5750 4050 
Q 5425 4075 5050 4075 
L 4150 4075 
Q 4100 3900 4025 3575 
L 4850 3575 
Q 5275 3575 5500 3600 
L 5500 3200 
Q 5225 3225 4800 3225 
L 3950 3225 
Q 3900 3075 3775 2775 
L 5100 2775 
Q 5675 2775 6000 2800 
L 6000 2425 
Q 5600 2450 5100 2450 
L 4925 2450 
Q 5125 2125 5550 1862 
Q 5975 1600 6200 1550 
Q 5950 1300 5875 1175 
Q 5375 1425 5012 1787 
Q 4650 2150 4500 2450 
L 3675 2450 
Q 3550 2250 3387 2037 
Q 3225 1825 3000 1600 
Q 3350 1575 3575 1575 
L 3825 1575 
Q 3825 1850 3800 2150 
L 4275 2150 
Q 4250 1825 4250 1575 
L 4475 1575 
Q 4700 1575 5175 1600 
L 5175 1200 
Q 4650 1225 4450 1225 
L 4250 1225 
L 4250 700 
L 5025 700 
Q 5500 700 5850 725 
L 5850 325 
Q 5425 350 5025 350 
L 4250 350 
L 4250 175 
Q 4250 -275 4275 -650 
L 3800 -650 
Q 3825 -275 3825 175 
L 3825 350 
L 3225 350 
Q 2750 350 2325 325 
L 2325 725 
Q 2625 700 3200 700 
L 3825 700 
L 3825 1225 
L 3600 1225 
Q 3400 1225 2975 1200 
L 2975 1575 
Q 2775 1400 2250 1050 
Q 2125 1200 1900 1400 
Q 2250 1525 2600 1800 
Q 2950 2075 3200 2450 
L 3025 2450 
Q 2750 2450 2375 2425 
L 2375 2800 
Q 2650 2775 3125 2775 
L 3350 2775 
Q 3475 3050 3525 3225 
L 3275 3225 
Q 3050 3225 2700 3200 
L 2700 3600 
Q 3000 3575 3250 3575 
L 3600 3575 
Q 3675 3875 3700 4075 
L 3275 4075 
Q 2825 4075 2500 4050 
L 2500 4450 
Q 2725 4425 3200 4425 
L 3775 4425 
z
M 1575 375 
Q 1575 -25 1600 -625 
L 1125 -625 
Q 1150 -125 1150 375 
L 1150 2325 
Q 950 1775 500 950 
Q 375 1150 175 1275 
Q 500 1825 725 2387 
Q 950 2950 1050 3425 
Q 625 3425 275 3400 
L 275 3800 
Q 625 3775 1150 3775 
L 1150 4500 
Q 1150 4850 1125 5100 
L 1600 5100 
Q 1575 4825 1575 4500 
L 1575 3775 
Q 1925 3775 2325 3800 
L 2325 3400 
Q 1900 3425 1575 3425 
L 1575 2600 
Q 1700 2675 1875 2850 
Q 2150 2475 2375 2075 
Q 2250 2000 2000 1800 
Q 1825 2175 1575 2525 
L 1575 375 
z
" transform="scale(0.015625)"/>
      <path id="SimHei-1d" d="M 1825 2425 
L 1250 2425 
L 1250 2975 
L 1825 2975 
L 1825 2425 
z
M 1825 125 
L 1250 125 
L 1250 675 
L 1825 675 
L 1825 125 
z
" transform="scale(0.015625)"/>
      <path id="SimHei-66" d="M 3400 5025 
L 3400 3500 
L 5325 3500 
L 5325 3075 
L 3400 3075 
L 3400 1550 
L 2975 1550 
L 2975 3075 
L 975 3075 
L 975 3500 
L 2975 3500 
L 2975 5025 
L 3400 5025 
z
M 975 825 
L 5325 825 
L 5325 375 
L 975 375 
L 975 825 
z
" transform="scale(0.015625)"/>
      <path id="SimHei-3" transform="scale(0.015625)"/>
      <path id="SimHei-1e3d" d="M 1275 4400 
Q 1275 4800 1250 5175 
L 1750 5175 
Q 1725 4825 1725 4400 
L 1725 3800 
Q 2125 3800 2575 3825 
L 2575 3350 
Q 2125 3375 1725 3375 
L 1725 2525 
Q 1900 2650 2075 2800 
Q 2400 2275 2650 1775 
Q 2375 1650 2175 1500 
Q 2025 2000 1725 2425 
L 1725 475 
Q 1725 -50 1750 -575 
L 1250 -575 
Q 1275 -25 1275 475 
L 1275 2100 
Q 1025 1400 500 750 
Q 350 950 125 1125 
Q 550 1550 812 2187 
Q 1075 2825 1150 3375 
Q 675 3375 325 3325 
L 325 3825 
Q 800 3800 1275 3800 
L 1275 4400 
z
M 5175 3125 
Q 5675 3125 6050 3150 
L 6050 2675 
Q 5675 2700 5275 2700 
L 4500 2700 
L 4500 175 
Q 4500 -225 4275 -350 
Q 4050 -475 3475 -550 
Q 3425 -250 3275 25 
Q 3775 25 3900 62 
Q 4025 100 4025 350 
L 4025 2700 
L 3400 2700 
Q 2775 2700 2500 2650 
L 2500 3150 
Q 2825 3125 3400 3125 
L 5175 3125 
z
M 4900 4775 
Q 5425 4775 5750 4800 
L 5750 4300 
Q 5275 4350 4750 4350 
L 3525 4350 
Q 3125 4350 2750 4300 
L 2750 4800 
Q 3100 4775 3525 4775 
L 4900 4775 
z
M 5275 2025 
Q 5825 1175 6200 500 
Q 5925 375 5650 200 
Q 5375 925 4825 1725 
Q 5075 1850 5275 2025 
z
M 3600 1775 
Q 3500 1625 3225 975 
Q 2950 325 2800 50 
Q 2575 175 2300 275 
Q 2625 775 2787 1187 
Q 2950 1600 3050 2000 
Q 3325 1875 3600 1775 
z
" transform="scale(0.015625)"/>
      <path id="SimHei-7fc" d="M 1600 2775 
Q 1900 3050 2275 3787 
Q 2650 4525 2800 5175 
Q 3075 5050 3400 4950 
Q 3250 4775 3000 4100 
L 4825 4100 
Q 5400 4100 5875 4125 
L 5875 3675 
Q 5375 3700 4825 3700 
L 4525 3700 
L 4525 2850 
Q 5250 2850 5700 2875 
L 5700 2425 
Q 5250 2450 4525 2450 
L 4525 1600 
Q 5275 1600 5700 1625 
L 5700 1200 
Q 5275 1225 4525 1225 
L 4525 375 
Q 5575 375 6050 400 
L 6050 -100 
Q 5575 -75 4975 -75 
L 2950 -75 
L 2950 -600 
L 2425 -600 
Q 2450 -150 2450 675 
L 2450 3050 
Q 2300 2775 2075 2400 
Q 1875 2650 1600 2775 
z
M 1675 2050 
Q 1425 1425 1200 850 
Q 975 275 775 -125 
Q 550 50 275 200 
Q 550 650 775 1112 
Q 1000 1575 1225 2300 
Q 1400 2125 1675 2050 
z
M 4025 1600 
L 4025 2450 
L 2950 2450 
L 2950 1600 
L 4025 1600 
z
M 4025 2850 
L 4025 3700 
L 2950 3700 
L 2950 2850 
L 4025 2850 
z
M 4025 375 
L 4025 1225 
L 2950 1225 
L 2950 375 
L 4025 375 
z
M 725 4775 
Q 850 4625 1162 4312 
Q 1475 4000 1750 3700 
Q 1525 3475 1375 3300 
Q 1100 3700 350 4450 
Q 550 4600 725 4775 
z
M 4150 5225 
Q 4600 4800 4800 4500 
Q 4625 4400 4400 4200 
Q 4225 4500 3775 4925 
Q 3925 5000 4150 5225 
z
" transform="scale(0.015625)"/>
      <path id="SimHei-20" d="M 2975 2900 
L 125 2900 
L 125 3300 
L 2975 3300 
L 2975 2900 
z
M 2975 1375 
L 125 1375 
L 125 1775 
L 2975 1775 
L 2975 1375 
z
" transform="scale(0.015625)"/>
     </defs>
     <use xlink:href="#SimHei-4225" transform="translate(0 0.96875)"/>
     <use xlink:href="#SimHei-1424" transform="translate(100 0.96875)"/>
     <use xlink:href="#SimHei-1f08" transform="translate(200 0.96875)"/>
     <use xlink:href="#SimHei-1d" transform="translate(300 0.96875)"/>
     <use xlink:href="#SimHei-66" transform="translate(350 0.96875)"/>
     <use xlink:href="#SimHei-14" transform="translate(450 0.96875)"/>
     <use xlink:href="#SimHei-3" transform="translate(500 0.96875)"/>
     <use xlink:href="#SimHei-1e3d" transform="translate(550 0.96875)"/>
     <use xlink:href="#SimHei-7fc" transform="translate(650 0.96875)"/>
     <use xlink:href="#SimHei-1424" transform="translate(750 0.96875)"/>
     <use xlink:href="#SimHei-b" transform="translate(850 0.96875)"/>
     <use xlink:href="#STIXGeneral-Italic-31" transform="translate(900 0.96875)"/>
     <use xlink:href="#SimHei-20" transform="translate(966.699936 0.96875)"/>
     <use xlink:href="#SimHei-14" transform="translate(1016.699936 0.96875)"/>
     <use xlink:href="#SimHei-13" transform="translate(1066.699936 0.96875)"/>
     <use xlink:href="#SimHei-13" transform="translate(1116.699936 0.96875)"/>
     <use xlink:href="#SimHei-c" transform="translate(1166.699936 0.96875)"/>
    </g>
    <!-- 单位:$\times10^6$ cycles -->
    <g style="fill: #1a1a1a" transform="translate(755.931 319.722287) scale(0.11 -0.11)">
     <defs>
      <path id="SimHei-98b" d="M 5275 4075 
L 5275 1525 
L 3400 1525 
L 3400 925 
L 5050 925 
Q 5600 925 6000 950 
L 6000 450 
Q 5575 475 5050 475 
L 3400 475 
Q 3400 -300 3425 -625 
L 2875 -625 
Q 2925 -300 2925 475 
L 1300 475 
Q 700 475 425 450 
L 425 950 
Q 675 925 1250 925 
L 2925 925 
L 2925 1525 
L 1125 1525 
Q 1150 1950 1150 2750 
Q 1150 3550 1125 4075 
L 3600 4075 
Q 3875 4650 4075 5250 
Q 4325 5125 4650 4975 
Q 4550 4850 4400 4587 
Q 4250 4325 4100 4075 
L 5275 4075 
z
M 4775 1925 
L 4775 2600 
L 3400 2600 
L 3400 1925 
L 4775 1925 
z
M 4775 3000 
L 4775 3650 
L 3400 3650 
L 3400 3000 
L 4775 3000 
z
M 2925 1925 
L 2925 2600 
L 1625 2600 
L 1625 1925 
L 2925 1925 
z
M 2925 3000 
L 2925 3650 
L 1625 3650 
L 1625 3000 
L 2925 3000 
z
M 2100 5225 
Q 2350 4950 2675 4350 
Q 2400 4225 2225 4125 
Q 1975 4675 1725 4975 
Q 1900 5075 2100 5225 
z
" transform="scale(0.015625)"/>
      <path id="SimHei-583" d="M 2125 4925 
Q 1950 4750 1625 3750 
L 1625 575 
Q 1625 -225 1650 -650 
L 1100 -650 
Q 1150 -200 1150 550 
L 1150 2950 
Q 775 2275 550 1950 
Q 375 2275 200 2425 
Q 525 2775 912 3575 
Q 1300 4375 1500 5200 
Q 1825 5000 2125 4925 
z
M 5375 3025 
Q 5275 2875 5100 2250 
Q 4925 1625 4600 300 
L 5450 300 
Q 5925 300 6100 325 
L 6100 -175 
Q 5875 -150 5450 -150 
L 2900 -150 
Q 2275 -150 2050 -175 
L 2050 325 
Q 2275 300 2850 300 
L 4075 300 
Q 4400 1400 4700 3175 
Q 5100 3075 5375 3025 
z
M 5250 4025 
Q 5700 4025 5925 4050 
L 5925 3575 
Q 5700 3600 5225 3600 
L 3000 3600 
Q 2650 3600 2275 3575 
L 2275 4050 
Q 2675 4025 3000 4025 
L 5250 4025 
z
M 3050 3050 
Q 3500 1775 3750 725 
Q 3450 625 3250 550 
Q 3125 1125 2962 1675 
Q 2800 2225 2550 2875 
Q 2800 2925 3050 3050 
z
M 3875 5200 
Q 4175 4675 4400 4300 
Q 4200 4250 3875 4075 
Q 3700 4525 3400 4950 
Q 3650 5050 3875 5200 
z
" transform="scale(0.015625)"/>
     </defs>
     <use xlink:href="#SimHei-98b" transform="translate(0 0.815625)"/>
     <use xlink:href="#SimHei-583" transform="translate(100 0.815625)"/>
     <use xlink:href="#SimHei-1d" transform="translate(200 0.815625)"/>
     <use xlink:href="#STIXGeneral-Regular-99" transform="translate(250 0.815625)"/>
     <use xlink:href="#STIXGeneral-Regular-14" transform="translate(313.999939 0.815625)"/>
     <use xlink:href="#STIXGeneral-Regular-13" transform="translate(363.999893 0.815625)"/>
     <use xlink:href="#STIXGeneral-Regular-19" transform="translate(415.574847 42.115625) scale(0.7)"/>
     <use xlink:href="#SimHei-3" transform="translate(455.074815 0.815625)"/>
     <use xlink:href="#SimHei-46" transform="translate(505.074815 0.815625)"/>
     <use xlink:href="#SimHei-5c" transform="translate(555.074815 0.815625)"/>
     <use xlink:href="#SimHei-46" transform="translate(605.074815 0.815625)"/>
     <use xlink:href="#SimHei-4f" transform="translate(655.074815 0.815625)"/>
     <use xlink:href="#SimHei-48" transform="translate(705.074815 0.815625)"/>
     <use xlink:href="#SimHei-56" transform="translate(755.074815 0.815625)"/>
    </g>
   </g>
   <g id="legend_1">
    <g id="patch_17">
     <path d="M 732.1 54 
L 851.7 54 
Q 854.3 54 854.3 51.4 
L 854.3 16.3 
Q 854.3 13.7 851.7 13.7 
L 732.1 13.7 
Q 729.5 13.7 729.5 16.3 
L 729.5 51.4 
Q 729.5 54 732.1 54 
z
" style="fill: #ffffff; opacity: 0.85; stroke: #cccccc; stroke-width: 0.5; stroke-linejoin: miter"/>
    </g>
    <g id="patch_18">
     <path d="M 734.7 30.071875 
L 750.3 30.071875 
L 750.3 20.971875 
L 734.7 20.971875 
z
" style="fill: #555555; stroke: #ffffff; stroke-width: 0.5; stroke-linejoin: miter"/>
    </g>
    <g id="text_24">
     <!-- 无L2(P2 VNS) -->
     <g transform="translate(758.1 30.071875) scale(0.13 -0.13)">
      <defs>
       <path id="SimHei-1c16" d="M 4350 4725 
Q 4875 4725 5300 4750 
L 5300 4275 
Q 4925 4300 4350 4300 
L 3175 4300 
Q 3175 3475 3125 2800 
L 5050 2800 
Q 5500 2800 5875 2825 
L 5875 2350 
Q 5500 2375 5075 2375 
L 3950 2375 
L 3950 425 
Q 3950 100 4325 100 
L 5175 100 
Q 5450 100 5475 850 
Q 5725 700 6025 625 
Q 5900 -350 5450 -350 
L 4075 -350 
Q 3500 -325 3500 300 
L 3500 2375 
L 3075 2375 
Q 2875 1425 2587 937 
Q 2300 450 1925 112 
Q 1550 -225 800 -650 
Q 675 -375 375 -225 
Q 975 50 1350 337 
Q 1725 625 2062 1050 
Q 2400 1475 2600 2375 
L 1500 2375 
Q 875 2375 600 2350 
L 600 2825 
Q 875 2800 1500 2800 
L 2650 2800 
Q 2675 3550 2675 4300 
L 2000 4300 
Q 1500 4300 1075 4275 
L 1075 4750 
Q 1500 4725 2000 4725 
L 4350 4725 
z
" transform="scale(0.015625)"/>
       <path id="SimHei-2f" d="M 2900 125 
L 300 125 
L 300 4400 
L 875 4400 
L 875 600 
L 2900 600 
L 2900 125 
z
" transform="scale(0.015625)"/>
       <path id="SimHei-33" d="M 2950 3100 
Q 2950 2500 2600 2150 
Q 2250 1800 1625 1800 
L 900 1800 
L 900 125 
L 325 125 
L 325 4400 
L 1625 4400 
Q 2250 4400 2600 4050 
Q 2950 3700 2950 3100 
z
M 2375 3100 
Q 2375 3575 2150 3750 
Q 1925 3925 1475 3925 
L 900 3925 
L 900 2275 
L 1475 2275 
Q 1925 2275 2150 2450 
Q 2375 2625 2375 3100 
z
" transform="scale(0.015625)"/>
       <path id="SimHei-39" d="M 3050 4400 
L 1800 75 
L 1300 75 
L 50 4400 
L 650 4400 
L 1525 1125 
L 1575 1125 
L 2450 4400 
L 3050 4400 
z
" transform="scale(0.015625)"/>
       <path id="SimHei-31" d="M 2850 125 
L 2225 125 
L 850 3225 
L 825 3225 
L 825 125 
L 250 125 
L 250 4400 
L 875 4400 
L 2250 1300 
L 2275 1300 
L 2275 4400 
L 2850 4400 
L 2850 125 
z
" transform="scale(0.015625)"/>
       <path id="SimHei-36" d="M 2900 1325 
Q 2900 750 2537 412 
Q 2175 75 1550 75 
Q 925 75 575 425 
Q 225 775 225 1300 
L 225 1475 
L 800 1475 
L 800 1325 
Q 800 950 1025 750 
Q 1250 550 1550 550 
Q 1950 550 2137 762 
Q 2325 975 2325 1275 
Q 2325 1525 2100 1737 
Q 1875 1950 1450 2125 
Q 850 2350 587 2625 
Q 325 2900 325 3275 
Q 325 3800 687 4125 
Q 1050 4450 1550 4450 
Q 2200 4450 2487 4062 
Q 2775 3675 2775 3225 
L 2200 3225 
Q 2225 3500 2050 3725 
Q 1875 3950 1550 3950 
Q 1250 3950 1075 3787 
Q 900 3625 900 3350 
Q 900 3125 1037 2962 
Q 1175 2800 1750 2575 
Q 2300 2350 2600 2037 
Q 2900 1725 2900 1325 
z
" transform="scale(0.015625)"/>
      </defs>
      <use xlink:href="#SimHei-1c16"/>
      <use xlink:href="#SimHei-2f" transform="translate(100 0)"/>
      <use xlink:href="#SimHei-15" transform="translate(150 0)"/>
      <use xlink:href="#SimHei-b" transform="translate(200 0)"/>
      <use xlink:href="#SimHei-33" transform="translate(250 0)"/>
      <use xlink:href="#SimHei-15" transform="translate(300 0)"/>
      <use xlink:href="#SimHei-3" transform="translate(350 0)"/>
      <use xlink:href="#SimHei-39" transform="translate(400 0)"/>
      <use xlink:href="#SimHei-31" transform="translate(450 0)"/>
      <use xlink:href="#SimHei-36" transform="translate(500 0)"/>
      <use xlink:href="#SimHei-c" transform="translate(550 0)"/>
     </g>
    </g>
    <g id="patch_19">
     <path d="M 734.7 46.971875 
L 750.3 46.971875 
L 750.3 37.871875 
L 734.7 37.871875 
z
" style="fill: #0d47a1; stroke: #ffffff; stroke-width: 0.5; stroke-linejoin: miter"/>
    </g>
    <g id="text_25">
     <!-- 只读L2(P3 VNS) -->
     <g transform="translate(758.1 46.971875) scale(0.13 -0.13)">
      <defs>
       <path id="SimHei-a20" d="M 5150 4800 
Q 5125 4375 5125 3400 
Q 5125 2450 5150 1875 
L 1225 1875 
Q 1250 2325 1250 3300 
Q 1250 4275 1225 4800 
L 5150 4800 
z
M 4600 2325 
L 4600 4375 
L 1775 4375 
L 1775 2325 
L 4600 2325 
z
M 4175 1575 
Q 5400 300 5925 -200 
Q 5850 -250 5425 -600 
Q 4975 0 3750 1225 
Q 3975 1375 4175 1575 
z
M 2575 1200 
Q 2250 850 1775 337 
Q 1300 -175 800 -675 
Q 625 -500 375 -275 
Q 825 50 1300 562 
Q 1775 1075 2125 1600 
Q 2425 1375 2575 1200 
z
" transform="scale(0.015625)"/>
       <path id="SimHei-4231" d="M 2250 3600 
Q 2775 3575 3875 3575 
L 3875 4100 
Q 2975 4100 2450 4075 
L 2450 4500 
Q 2775 4475 3875 4475 
Q 3875 4825 3850 5150 
L 4350 5150 
Q 4325 4750 4325 4475 
Q 5375 4475 5825 4500 
L 5825 4075 
Q 5425 4100 4325 4100 
L 4325 3575 
L 6025 3575 
Q 5675 2725 5550 2400 
Q 5375 2475 5125 2575 
Q 5300 3000 5375 3200 
L 3300 3200 
Q 2775 3200 2250 3175 
L 2250 3600 
z
M 4375 925 
Q 4175 425 3850 125 
Q 3525 -175 3162 -362 
Q 2800 -550 2525 -650 
Q 2375 -450 2200 -250 
Q 2850 -125 3312 225 
Q 3775 575 3900 925 
L 3275 925 
Q 2800 925 2275 900 
L 2275 1350 
Q 2725 1325 3275 1325 
L 4025 1325 
Q 4075 1725 4112 2187 
Q 4150 2650 4150 3000 
Q 4375 2925 4675 2900 
Q 4600 2625 4562 2200 
Q 4525 1775 4450 1325 
L 5050 1325 
Q 5500 1325 6075 1350 
L 6075 900 
Q 5600 925 5075 925 
L 4375 925 
z
M 1600 3275 
Q 1575 2850 1575 2350 
L 1575 700 
Q 1775 925 2000 1200 
Q 2075 1000 2250 775 
Q 1900 425 1650 150 
Q 1400 -125 1225 -350 
Q 1100 -150 850 25 
Q 1075 200 1125 425 
L 1125 2875 
Q 825 2875 325 2850 
L 325 3300 
Q 775 3275 1150 3275 
L 1600 3275 
z
M 4650 675 
Q 5575 75 5975 -225 
Q 5800 -400 5650 -625 
Q 5200 -200 4400 275 
Q 4575 500 4650 675 
z
M 1050 5050 
Q 1475 4600 1775 4175 
Q 1575 4050 1375 3875 
Q 1050 4400 675 4750 
Q 900 4900 1050 5050 
z
M 2925 3100 
Q 3575 2675 3900 2475 
Q 3775 2300 3625 2075 
Q 3125 2500 2700 2725 
Q 2825 2925 2925 3100 
z
M 2475 2375 
Q 3050 2050 3450 1800 
Q 3325 1625 3175 1400 
Q 2550 1850 2250 2000 
Q 2375 2175 2475 2375 
z
" transform="scale(0.015625)"/>
      </defs>
      <use xlink:href="#SimHei-a20"/>
      <use xlink:href="#SimHei-4231" transform="translate(100 0)"/>
      <use xlink:href="#SimHei-2f" transform="translate(200 0)"/>
      <use xlink:href="#SimHei-15" transform="translate(250 0)"/>
      <use xlink:href="#SimHei-b" transform="translate(300 0)"/>
      <use xlink:href="#SimHei-33" transform="translate(350 0)"/>
      <use xlink:href="#SimHei-16" transform="translate(400 0)"/>
      <use xlink:href="#SimHei-3" transform="translate(450 0)"/>
      <use xlink:href="#SimHei-39" transform="translate(500 0)"/>
      <use xlink:href="#SimHei-31" transform="translate(550 0)"/>
      <use xlink:href="#SimHei-36" transform="translate(600 0)"/>
      <use xlink:href="#SimHei-c" transform="translate(650 0)"/>
     </g>
    </g>
   </g>
  </g>
  <g id="text_26">
   <!-- 图4:P3无L2与只读L2Cache对比(100个测试用例) -->
   <g transform="translate(202.8 413.14625) scale(0.22 -0.22)">
    <defs>
     <path id="SimHei-d34" d="M 5800 4975 
Q 5775 4350 5775 3600 
L 5775 925 
Q 5775 150 5800 -600 
L 5300 -600 
L 5300 -275 
L 1125 -275 
L 1125 -650 
L 625 -650 
Q 650 125 650 950 
L 650 3600 
Q 650 4325 625 4975 
L 5800 4975 
z
M 5300 150 
L 5300 4575 
L 1125 4575 
L 1125 150 
L 5300 150 
z
M 3225 4250 
Q 3075 4100 2950 3925 
L 4625 3925 
Q 4525 3700 4300 3375 
Q 4075 3050 3600 2600 
Q 4350 2225 5075 2150 
Q 4900 1925 4775 1675 
Q 3850 1950 3225 2350 
Q 2500 1875 1675 1650 
Q 1600 1875 1400 2075 
Q 2200 2200 2875 2600 
Q 2525 2925 2375 3150 
Q 2150 2900 1900 2650 
Q 1725 2850 1525 2950 
Q 1950 3300 2250 3737 
Q 2550 4175 2675 4475 
Q 2925 4350 3225 4250 
z
M 2450 1275 
Q 3550 950 4100 725 
Q 3975 525 3850 300 
Q 2825 725 2275 850 
Q 2375 1050 2450 1275 
z
M 2925 2050 
Q 3775 1700 4075 1600 
Q 3950 1400 3850 1150 
Q 3000 1550 2700 1650 
Q 2825 1825 2925 2050 
z
M 2625 3450 
Q 3000 3025 3275 2850 
Q 3600 3100 3875 3525 
L 2675 3525 
L 2625 3450 
z
" transform="scale(0.015625)"/>
     <path id="SimHei-444" d="M 5350 100 
Q 5275 -300 4925 -425 
Q 4575 -550 3900 -600 
Q 3875 -375 3650 -25 
Q 4375 -50 4575 0 
Q 4775 50 4837 225 
Q 4900 400 5100 2350 
L 1125 2350 
Q 1450 4350 1475 5200 
Q 1800 5150 2075 5125 
Q 1975 4825 1900 4275 
L 4900 4275 
Q 5400 4275 5800 4300 
L 5800 3825 
Q 5400 3850 4950 3850 
L 1850 3850 
L 1700 2750 
L 5675 2750 
Q 5625 2450 5575 2050 
L 5350 100 
z
M 3675 1350 
Q 4125 1350 4500 1375 
L 4500 875 
Q 4125 900 3850 900 
L 1450 900 
Q 1000 900 500 875 
L 500 1375 
Q 1000 1350 1450 1350 
L 3675 1350 
z
" transform="scale(0.015625)"/>
     <path id="SimHei-26" d="M 2975 1825 
Q 2950 875 2575 475 
Q 2200 75 1675 75 
Q 1075 75 650 562 
Q 225 1050 225 2125 
Q 225 3300 637 3875 
Q 1050 4450 1700 4450 
Q 2250 4450 2612 4037 
Q 2975 3625 2950 2875 
L 2400 2875 
Q 2400 3425 2225 3700 
Q 2050 3975 1700 3975 
Q 1300 3975 1062 3562 
Q 825 3150 825 2175 
Q 825 1275 1062 912 
Q 1300 550 1675 550 
Q 1950 550 2175 812 
Q 2400 1075 2400 1825 
L 2975 1825 
z
" transform="scale(0.015625)"/>
     <path id="SimHei-4b" d="M 2800 125 
L 2300 125 
L 2300 1925 
Q 2300 2225 2150 2400 
Q 2000 2575 1750 2575 
Q 1425 2575 1137 2237 
Q 850 1900 850 1400 
L 850 125 
L 350 125 
L 350 4400 
L 850 4400 
L 850 2400 
Q 1050 2675 1287 2825 
Q 1525 2975 1900 2975 
Q 2350 2975 2575 2725 
Q 2800 2475 2800 2100 
L 2800 125 
z
" transform="scale(0.015625)"/>
     <path id="SimHei-122f" d="M 525 4250 
Q 900 4225 1400 4225 
L 2825 4225 
Q 2575 2625 2200 1750 
Q 2825 875 3125 400 
Q 2950 275 2725 75 
Q 2200 975 1950 1300 
Q 1650 775 1350 425 
Q 1050 75 600 -350 
Q 425 -125 200 -25 
Q 625 275 975 675 
Q 1325 1075 1650 1700 
Q 1050 2425 550 2900 
Q 700 3025 900 3225 
Q 1625 2425 1875 2150 
Q 2200 3050 2300 3825 
L 1400 3825 
Q 900 3825 525 3800 
L 525 4250 
z
M 2925 3700 
Q 3525 3675 3750 3675 
L 4825 3675 
L 4825 4425 
Q 4825 4750 4775 5125 
L 5350 5125 
Q 5325 4825 5325 4375 
L 5325 3675 
Q 5575 3675 6150 3700 
L 6150 3250 
Q 5575 3275 5325 3275 
L 5325 125 
Q 5350 -350 5012 -475 
Q 4675 -600 4250 -650 
Q 4175 -350 4025 -100 
Q 4575 -100 4712 -37 
Q 4850 25 4825 325 
L 4825 3275 
L 3775 3275 
Q 3550 3275 2925 3225 
L 2925 3700 
z
M 3450 2725 
Q 3875 1975 4175 1325 
Q 3850 1200 3700 1075 
Q 3475 1750 3050 2475 
Q 3225 2550 3450 2725 
z
" transform="scale(0.015625)"/>
     <path id="SimHei-220a" d="M 3775 5100 
Q 3750 4575 3750 4100 
L 3750 3050 
Q 4925 3600 5475 4175 
Q 5675 3900 5900 3675 
Q 5600 3500 5037 3187 
Q 4475 2875 3750 2550 
L 3750 450 
Q 3750 100 4050 100 
L 5000 100 
Q 5175 100 5262 250 
Q 5350 400 5450 900 
Q 5650 775 6025 675 
Q 5850 0 5650 -175 
Q 5450 -350 5225 -350 
L 3900 -350 
Q 3250 -350 3250 275 
L 3250 4000 
Q 3250 4550 3225 5100 
L 3775 5100 
z
M 1275 4975 
Q 1250 4575 1250 4000 
L 1250 3150 
L 1850 3150 
Q 2325 3150 2875 3175 
L 2875 2650 
Q 2325 2675 1850 2675 
L 1250 2675 
L 1250 475 
Q 1650 650 1962 812 
Q 2275 975 2850 1275 
Q 2900 950 2950 750 
Q 2375 475 1762 175 
Q 1150 -125 925 -325 
Q 750 -100 575 200 
Q 700 300 750 600 
L 750 3950 
Q 750 4550 725 4975 
L 1275 4975 
z
" transform="scale(0.015625)"/>
     <path id="SimHei-460" d="M 3425 4825 
Q 4475 3275 6150 2775 
Q 5900 2475 5775 2200 
Q 4150 2900 3150 4425 
Q 2225 2950 675 2125 
Q 550 2350 250 2600 
Q 1450 3100 2112 3875 
Q 2775 4650 3000 5275 
Q 3300 5150 3600 5050 
Q 3500 4925 3425 4825 
z
M 2925 2350 
Q 2925 2750 2875 3375 
L 3450 3375 
Q 3425 2950 3425 2325 
L 3425 550 
Q 3425 -25 3450 -625 
L 2900 -625 
Q 2925 0 2925 525 
L 2925 2350 
z
" transform="scale(0.015625)"/>
     <path id="SimHei-2381" d="M 4025 4725 
Q 4000 4475 4000 4000 
L 4000 2225 
Q 4000 1775 4025 1350 
L 3550 1350 
L 3550 4325 
L 2350 4325 
L 2350 1325 
L 1900 1325 
Q 1925 1775 1925 2225 
L 1925 4000 
Q 1925 4200 1900 4725 
L 4025 4725 
z
M 5900 5075 
Q 5875 4800 5875 4375 
L 5875 0 
Q 5875 -325 5650 -425 
Q 5425 -525 4975 -600 
Q 4925 -325 4775 -50 
Q 5125 -50 5262 -25 
Q 5400 0 5400 250 
L 5400 4375 
Q 5400 4775 5375 5075 
L 5900 5075 
z
M 3275 3725 
Q 3225 3400 3200 2325 
Q 3175 1250 2837 550 
Q 2500 -150 2075 -600 
Q 1850 -400 1600 -325 
Q 2200 250 2475 962 
Q 2750 1675 2762 2475 
Q 2775 3275 2725 3800 
Q 3000 3750 3275 3725 
z
M 4950 4275 
Q 4925 4000 4925 3575 
L 4925 1825 
Q 4925 1300 4950 850 
L 4450 850 
Q 4475 1150 4475 1825 
L 4475 3575 
Q 4475 4000 4450 4275 
L 4950 4275 
z
M 1700 1675 
Q 1375 1075 1112 487 
Q 850 -100 725 -400 
Q 500 -200 200 -25 
Q 475 300 762 850 
Q 1050 1400 1250 2000 
Q 1475 1825 1700 1675 
z
M 3400 1050 
Q 3800 650 4300 -125 
Q 4100 -225 3875 -450 
Q 3475 275 3025 750 
Q 3225 875 3400 1050 
z
M 600 3525 
Q 1125 3125 1500 2775 
Q 1300 2575 1150 2375 
Q 825 2775 300 3150 
Q 450 3300 600 3525 
z
M 1350 4000 
Q 950 4375 475 4675 
Q 625 4850 775 5050 
Q 1300 4700 1675 4375 
Q 1500 4250 1350 4000 
z
" transform="scale(0.015625)"/>
     <path id="SimHei-420b" d="M 3950 3825 
Q 3925 4325 3925 4550 
Q 3925 4800 3900 5225 
Q 4200 5150 4450 5125 
Q 4425 4825 4425 4600 
L 4425 3825 
L 5150 3825 
Q 5500 3825 5875 3850 
L 5875 3400 
Q 5525 3425 5125 3425 
L 4450 3425 
Q 4500 2750 4587 2212 
Q 4675 1675 4837 1112 
Q 5000 550 5212 225 
Q 5425 -100 5500 200 
Q 5575 500 5600 900 
Q 5800 625 6100 525 
Q 5975 -275 5750 -487 
Q 5525 -700 5250 -537 
Q 4975 -375 4737 62 
Q 4500 500 4337 1075 
Q 4175 1650 4100 2262 
Q 4025 2875 3975 3425 
L 2800 3425 
Q 2300 3425 1875 3400 
L 1875 3850 
Q 2275 3825 2775 3825 
L 3950 3825 
z
M 1500 3175 
Q 1475 2675 1475 2175 
L 1475 625 
Q 1825 950 2125 1225 
Q 2225 1000 2375 800 
Q 1900 425 1125 -350 
Q 1000 -125 825 50 
Q 1025 175 1025 525 
L 1025 2725 
Q 625 2725 300 2700 
L 300 3200 
Q 625 3175 825 3175 
L 1500 3175 
z
M 3775 2175 
Q 3500 2200 3250 2200 
L 3250 575 
Q 3575 675 3900 800 
Q 3900 525 3950 325 
Q 3575 250 3150 125 
Q 2725 0 2275 -175 
Q 2200 100 2025 300 
Q 2425 350 2800 475 
L 2800 2200 
Q 2525 2200 2225 2175 
L 2225 2650 
Q 2600 2625 3000 2625 
Q 3425 2625 3775 2650 
L 3775 2175 
z
M 925 4975 
Q 1275 4650 1700 4100 
Q 1525 3925 1325 3775 
Q 1175 4050 575 4650 
Q 775 4825 925 4975 
z
M 5150 5150 
Q 5325 5000 5850 4375 
Q 5575 4200 5425 4050 
Q 5125 4525 4775 4875 
Q 4925 4975 5150 5150 
z
" transform="scale(0.015625)"/>
     <path id="SimHei-2b5e" d="M 350 -300 
Q 650 125 812 600 
Q 975 1075 1012 1550 
Q 1050 2025 1050 3150 
Q 1050 4275 1025 4950 
L 5500 4950 
Q 5475 4225 5475 3650 
L 5475 375 
Q 5475 -150 5175 -275 
Q 4875 -400 4475 -450 
Q 4425 -75 4300 125 
Q 4800 100 4887 162 
Q 4975 225 4975 400 
L 4975 1650 
L 3450 1650 
L 3450 675 
Q 3450 125 3475 -325 
L 2925 -325 
Q 2950 100 2950 650 
L 2950 1650 
L 1525 1650 
Q 1425 575 850 -525 
Q 575 -350 350 -300 
z
M 4975 3475 
L 4975 4550 
L 3450 4550 
L 3450 3475 
L 4975 3475 
z
M 4975 2050 
L 4975 3100 
L 3450 3100 
L 3450 2050 
L 4975 2050 
z
M 2950 3475 
L 2950 4550 
L 1525 4550 
L 1525 3475 
L 2950 3475 
z
M 2950 2050 
L 2950 3100 
L 1525 3100 
L 1525 2050 
L 2950 2050 
z
" transform="scale(0.015625)"/>
     <path id="SimHei-5c1" d="M 3450 4725 
Q 3825 4725 4100 4750 
L 4100 4300 
Q 3825 4325 3500 4325 
L 3150 4325 
Q 3125 4025 3025 3350 
L 4050 3350 
Q 4000 2050 3612 1050 
Q 3225 50 2300 -600 
Q 2200 -400 1900 -150 
Q 2750 250 3200 1325 
Q 2975 1525 2550 1800 
Q 2700 2000 2825 2175 
Q 3200 1875 3350 1775 
Q 3500 2250 3575 2950 
L 2925 2950 
Q 2800 2425 2225 1575 
Q 2025 1775 1775 1925 
Q 2125 2275 2375 2837 
Q 2625 3400 2675 4325 
Q 2300 4325 2150 4300 
L 2150 4750 
Q 2400 4725 2800 4725 
L 3450 4725 
z
M 2050 4975 
Q 1875 4775 1550 3850 
L 1550 475 
Q 1550 -25 1575 -600 
L 1075 -600 
Q 1100 -75 1100 425 
L 1100 3000 
Q 950 2700 650 2250 
Q 550 2375 200 2625 
Q 525 2925 937 3762 
Q 1350 4600 1450 5200 
Q 1650 5075 2050 4975 
z
M 5950 5075 
Q 5900 4775 5900 4300 
L 5900 250 
Q 5900 -275 5700 -400 
Q 5500 -525 4850 -575 
Q 4825 -300 4650 50 
Q 5175 0 5300 25 
Q 5425 50 5450 300 
L 5450 4275 
Q 5450 4750 5400 5075 
L 5950 5075 
z
M 4925 4225 
Q 4875 3875 4875 3250 
L 4875 1800 
Q 4875 1200 4900 925 
L 4375 925 
Q 4425 1200 4425 1775 
L 4425 3275 
Q 4400 3850 4375 4225 
L 4925 4225 
z
" transform="scale(0.015625)"/>
    </defs>
    <use xlink:href="#SimHei-d34"/>
    <use xlink:href="#SimHei-17" transform="translate(100 0)"/>
    <use xlink:href="#SimHei-1d" transform="translate(150 0)"/>
    <use xlink:href="#SimHei-33" transform="translate(200 0)"/>
    <use xlink:href="#SimHei-16" transform="translate(250 0)"/>
    <use xlink:href="#SimHei-1c16" transform="translate(300 0)"/>
    <use xlink:href="#SimHei-2f" transform="translate(400 0)"/>
    <use xlink:href="#SimHei-15" transform="translate(450 0)"/>
    <use xlink:href="#SimHei-444" transform="translate(500 0)"/>
    <use xlink:href="#SimHei-a20" transform="translate(600 0)"/>
    <use xlink:href="#SimHei-4231" transform="translate(700 0)"/>
    <use xlink:href="#SimHei-2f" transform="translate(800 0)"/>
    <use xlink:href="#SimHei-15" transform="translate(850 0)"/>
    <use xlink:href="#SimHei-26" transform="translate(900 0)"/>
    <use xlink:href="#SimHei-44" transform="translate(950 0)"/>
    <use xlink:href="#SimHei-46" transform="translate(1000 0)"/>
    <use xlink:href="#SimHei-4b" transform="translate(1050 0)"/>
    <use xlink:href="#SimHei-48" transform="translate(1100 0)"/>
    <use xlink:href="#SimHei-122f" transform="translate(1150 0)"/>
    <use xlink:href="#SimHei-220a" transform="translate(1250 0)"/>
    <use xlink:href="#SimHei-b" transform="translate(1350 0)"/>
    <use xlink:href="#SimHei-14" transform="translate(1400 0)"/>
    <use xlink:href="#SimHei-13" transform="translate(1450 0)"/>
    <use xlink:href="#SimHei-13" transform="translate(1500 0)"/>
    <use xlink:href="#SimHei-460" transform="translate(1550 0)"/>
    <use xlink:href="#SimHei-2381" transform="translate(1650 0)"/>
    <use xlink:href="#SimHei-420b" transform="translate(1750 0)"/>
    <use xlink:href="#SimHei-2b5e" transform="translate(1850 0)"/>
    <use xlink:href="#SimHei-5c1" transform="translate(1950 0)"/>
    <use xlink:href="#SimHei-c" transform="translate(2050 0)"/>
   </g>
  </g>
 </g>
 <defs>
  <clipPath id="pcba1e2d7f7">
   <rect x="50.35" y="7.2" width="810.45" height="324.58"/>
  </clipPath>
 </defs>
</svg>
